<?xml version="1.0" encoding="UTF-8" standalone="no"?>
<svg
   width="1920"
   height="1080"
   viewBox="0 0 1920 1080"
   version="1.1"
   id="svg1"
   xmlns="http://www.w3.org/2000/svg"
   xmlns:svg="http://www.w3.org/2000/svg">
  <g
     id="LANDING PAGE">
    <rect
      style="fill:#ffaaaa"
      id="BG"
      width="1920"
      height="1080"
      x="0"
      y="0" 
    />
    <path
       id="lemon_stamp"
       style="fill:#f9f300;stroke-width:1"
       d="m 912.05904,137.28968 c 29.01316,-3.75768 56.9368,-4.4369 85.18656,-5.36292 36.8318,0.67104 74.1633,5.05751 109.073,18.09781 13.9608,-6.6586 54.9993,29.28119 28.6335,19.3908 -13.9965,-18.36651 -45.6808,-9.66354 -64.5118,-24.45364 -22.5773,-2.32744 -47.1235,-8.43458 -64.6819,0.61644 -18.46578,-5.33852 -42.58874,-15.65655 -54.28684,3.04768 -16.15361,-24.27461 -31.42545,21.82318 -50.41616,-3.04159 -19.97554,0.11548 6.87461,-7.35076 11.00364,-8.29458 z m 108.61066,-1.76916 c -2.5701,2.12328 3.1909,0.80501 0,0 z m -137.51364,10.93937 c 18.50145,5.30761 0.98054,20.09796 -12.87933,13.61625 -36.78459,0.89196 6.20785,-10.73136 12.87933,-13.61625 z m -32.6669,11.91771 c 10.76125,15.43605 -25.60017,7.83125 -2.09344,3.12765 z m -17.4272,7.93361 c 12.68286,25.67895 -28.30949,9.90066 -27.7382,29.27487 -28.55818,6.75478 -25.34352,40.11267 -54.39728,41.58757 -25.16691,12.16007 -15.17753,50.26517 -46.92422,49.619 -5.49443,21.14394 -17.27772,33.60346 -14.1515,54.51606 -31.93187,2.99001 -6.44975,49.71658 -25.81599,68.59762 -6.09887,25.1497 -8.82191,46.06731 -1.83105,67.88515 -34.24796,30.93031 -15.7049,-48.75485 -13.45008,-66.61092 0.69598,-32.82941 20.65102,-62.03439 30.85372,-92.69345 19.58089,-40.23907 50.55599,-76.22645 86.10633,-102.80617 16.48604,-22.62491 44.19914,-34.86827 67.34827,-49.36973 z m 62.37449,36.91393 c 26.86146,-0.46258 94.64571,-34.4737 85.51429,15.55951 -1.46672,-16.14118 -19.97165,-2.24721 -22.51182,-17.50468 -16.00515,-8.67426 3.80045,14.62064 -12.13558,4.7763 12.74098,15.0751 -18.81557,12.48527 -14.42049,22.3773 7.90219,-15.71865 -20.65099,-37.69033 -2.99011,-13.73488 -2.14396,10.12884 -12.01104,-9.63428 -18.13527,7.40534 -16.78942,-20.33289 4.03652,38.02265 -12.66144,8.20533 7.13069,-19.09738 -22.61489,-17.69315 -9.5612,-1.5843 -19.4456,-10.01323 -21.51914,3.10494 -20.51339,14.24138 -13.96451,0.3184 -15.8237,-9.54098 -11.33113,8.91575 -4.15321,7.51233 -12.36474,38.84271 -11.98469,24.55507 6.35859,-9.22043 -22.17649,-6.0772 -1.54289,-10.77673 10.1536,-40.14062 -28.31126,16.59505 -18.47925,22.33043 -11.333,16.16601 -10.66487,-16.95836 -22.21131,-18.62973 13.04427,-35.33668 61.51117,-50.88297 92.96428,-66.13609 z m 6.36889,5.95046 c -7.4499,6.53028 7.09652,6.95365 0,0 z m 34.17148,-2.79643 c -5.42281,20.51982 18.6094,-2.5736 0,0 z m -93.18706,28.1195 c -9.98429,13.16718 12.91459,-1.07039 0,0 z m -5.2,8.35658 c -4.24607,3.65109 4.40167,2.05825 0,0 z m -12.6238,5.32692 c -20.197,15.21502 18.32832,7.54343 0,0 z m -10.9714,13.0046 c -8.32293,7.86894 5.7885,8.62105 0,0 z m 8.6048,1.91002 c -3.8493,3.27277 3.93059,0.14544 0,0 z m -3.9296,9.04266 c -12.51108,5.39675 7.99931,0.83066 0,0 z m 182.27984,-77.32308 c 34.5764,-6.54178 68.7619,-3.74582 101.3874,12.04945 31.0088,11.03199 -29.1108,32.85169 -0.3976,11.73372 -5.1911,-18.32191 -32.1251,-13.29277 -15.9002,5.11869 -5.8764,15.1503 5.4671,24.82691 -11.9964,5.78063 -9.7151,-1.4962 11.805,36.54898 -5.3329,13.52802 -7.7459,-14.80715 -15.3866,10.5742 -18.2649,-14.90381 -8.7208,-11.3107 17.8856,-36.76141 -8.9148,-22.9392 -18.9893,5.78751 15.4334,10.3245 -1.5197,25.80536 -0.5096,-10.84168 -1.8035,37.92705 -10.7825,24.92752 3.8838,-15.00684 13.2032,-35.14236 -6.658,-41.04373 -8.5224,22.70227 -7.1145,9.58922 -21.183,0.42668 -11.41238,10.2627 -10.22781,-19.11255 -0.4374,-20.48333 z m 19.1555,2.38027 c -12.7727,10.6179 -30.44526,2.3652 -7.6623,19.20357 8.3401,-2.01413 1.7789,-20.26198 7.6623,-19.20357 z m -7.4565,11.59322 c 6.3931,-3.53964 -1.4903,9.01209 0,0 z m 10.9199,-6.43781 c -5.554,12.08192 12.9012,7.99502 0,0 z m 45.1964,2.37789 c -8.6943,14.98967 13.6491,6.75755 0,0 z m -7.9058,2.45857 c -10.1036,14.02915 -0.2513,30.01365 4.6988,16.19351 -6.3577,-3.45645 -2.8172,-10.83181 -4.6988,-16.19351 z m 9.4903,11.99491 c -9.2218,6.77521 12.7846,2.83596 0,0 z m 9.893,4.31469 c -5.056,6.39856 7.0443,1.02285 0,0 z m -14.5475,14.47233 0.081,1.29433 z M 884.50526,236.139 c 19.78212,3.52213 -14.74536,7.01404 0,0 z m 74.4843,-14.87921 c 8.14959,2.73817 -7.6171,8.56437 0,0 z m -18.57274,4.85457 c 9.48782,4.36056 -9.33775,7.21984 0,0 z m -73.13766,22.57436 c 20.50131,0.48295 4.74123,16.23421 0,0 z m 12.2269,-1.69898 c 10.02442,-1.78686 -4.09321,7.87408 0,0 z m 67.45626,-17.17985 c 13.76625,-1.43364 -2.88176,11.81095 0,0 z m -30.60324,7.99918 c 26.76663,6.7846 -18.03713,4.96395 0,0 z m -9.63964,2.51957 c 11.18655,5.93725 3.35017,14.46776 0,0 z m -18.71368,5.5673 c 4.12407,1.39756 -2.60282,3.48976 0,0 z m 50.83886,-12.61262 c 15.24261,8.9451 -4.56774,10.07258 0,0 z m -2.2959,4.65478 c 10.11205,9.93527 -6.2703,10.62345 0,0 z m -51.96026,15.17908 c 12.08416,6.13673 -14.00229,10.36953 0,0 z m 117.79694,-29.68437 c 11.6843,22.19639 -6.34663,12.09556 0,0 z m -20.55324,5.37225 c 8.56232,4.94192 -4.4306,6.98315 0,0 z m -123.5218,32.55529 c 19.56896,-7.1406 -3.65023,8.55859 0,0 z m 117.2623,-29.5675 c 10.10711,1.52421 -5.55856,3.17577 0,0 z m -26.54584,7.78892 c 7.18076,-2.99056 -3.31181,6.5898 0,0 z m 8.62354,-1.84621 c 1.91305,-2.59395 0.71207,4.40209 0,0 z m -90.8752,24.60124 c 8.33479,9.47545 -12.76886,20.8348 -1.84615,2.93782 z m -79.9887,22.91256 c 28.18941,7.17665 -3.56631,22.51685 -9.05496,27.78603 31.54647,24.42182 -30.46742,-15.6782 -16.86294,15.42613 9.80422,-5.46211 -8.8096,9.09423 3.0374,11.17138 -10.88237,-0.0831 -24.73308,4.17634 -7.8382,12.55496 11.14132,-20.42646 3.79056,6.65207 11.52287,16.07593 -18.55904,6.57129 -20.42763,5.5634 -37.94437,7.26981 3.96199,5.75825 21.94766,14.61799 1.535,15.05734 -6.36753,11.03805 -0.4279,18.90331 -12.79986,8.37905 -1.0307,10.1895 -9.22996,17.37189 -6.61342,27.66598 -1.86931,6.47996 4.02754,24.75083 -5.40859,6.14671 0.0244,-23.61797 11.70559,-74.82398 31.62864,-77.9667 19.19981,18.22381 -15.9967,-23.58707 10.54255,-29.43318 8.70809,-17.72086 20.72345,-31.53866 38.25588,-40.13344 z m -1.5363,9.14098 c -6.8442,3.66123 6.02363,2.99126 0,0 z m -32.5079,30.11191 c -1.45103,2.55454 3.98128,0.53106 0,0 z m -3.6862,7.7215 c -2.91382,3.23783 3.97788,1.76915 0,0 z m 0.137,21.58961 c -3.49298,27.37282 29.54803,2.54406 0,0 z m -12.8305,7.40842 c -2.5706,2.12275 3.19095,0.80556 0,0 z m 5.735,5.25894 c -5.58364,5.30636 8.52168,3.9149 0,0 z M 1030.5246,222.83583 c 4.7634,0.57392 -1.0321,3.0707 0,0 z m -50.35764,13.83824 c 7.96452,0.22164 -3.99338,3.8177 0,0 z m -101.2654,27.82074 c 7.23205,0.0613 -3.75564,5.99252 0,0 z m -7.9056,6.16686 c 10.94196,-1.41151 -2.84481,8.09451 0,0 z m -36.9329,10.50058 c 8.64608,-0.11958 -2.89352,7.99215 0,0 z m 69.35548,-17.66947 c 3.27978,0.59384 -2.38972,2.26416 0,0 z m 111.16226,-28.38019 c 13.5938,23.05377 -10.5945,15.95557 0,0 z m -74.34508,19.43257 c 16.43937,-0.0229 -11.40449,4.19593 0,0 z m 23.48104,-4.49211 c 11.16098,12.48258 32.03441,11.2149 14.22921,26.43853 -0.89922,-11.41556 -12.64352,-16.41402 -14.22921,-26.43853 z m 40.02994,-8.05388 c 3.6041,1.57615 -5.6729,3.17384 0,0 z m -164.21994,42.92437 c 8.35082,4.80297 -6.75186,8.51259 0,0 z m 93.46032,-23.54849 c 10.05706,0.64617 -2.96624,11.41531 0,0 z m -7.3954,2.40414 c 7.38671,5.6061 -7.47228,6.02044 0,0 z M 1046.9429,233.8087 c 4.8598,-1.23321 -1.7836,4.11786 0,0 z m -137.22086,35.57247 c 3.00048,-0.30633 -2.43881,2.82093 0,0 z m 74.43612,-18.882 c 5.39086,1.44182 -3.76292,4.43408 0,0 z m -34.47504,9.01126 c 3.27986,0.59407 -2.39032,2.26342 0,0 z m -7.9479,3.4288 c 24.06092,7.66931 3.18404,39.02219 3.8824,8.34793 -2.35195,-1.30492 -6.48879,-5.18475 -3.8824,-8.34793 z m -108.35816,28.62226 c 14.18052,-1.51699 -8.31484,13.01436 0,0 z m 29.5942,-7.3588 c 6.60979,2.39659 -4.0369,4.55333 0,0 z m -63.9172,17.38279 c 5.63026,0.0849 -2.49645,4.369 0,0 z m 70.0893,-16.80583 c 11.47787,4.42466 -3.37711,13.66808 0,0 z m 253.32974,-64.65596 c 8.7237,-1.14445 -1.1702,6.519 0,0 z m -6.3457,1.46713 c 8.3872,7.82744 -11.1666,11.78211 -0.3017,0.23673 z m -116.21624,30.87379 c 9.35994,14.90088 23.52974,-4.30568 7.48444,18.96864 -17.46511,3.2606 -2.1346,-7.81263 -7.48444,-18.96864 z m 46.67984,-10.75785 c 17.8067,-0.57569 -9.9476,13.30226 0,0 z m -121.26802,31.8057 c 5.92572,7.20214 -9.84849,12.2217 0,0 z m -79.50612,20.58168 c 9.45545,2.98771 -7.91729,6.68482 0,0 z m 33.988,-8.20806 c 47.69279,-5.31854 -14.09106,20.49655 0,0 z m 56.29626,-13.70119 c 3.35974,-0.45901 -2.16199,3.87066 0,0 z m -128.52036,33.25523 c 28.4377,9.4204 -4.54364,14.52354 0,0 z m 103.93258,-26.49051 c 5.8416,1.6142 -4.60701,4.35578 0,0 z m 193.25046,-48.48499 c 6.034,0.37468 -5.9803,3.17983 0,0 z m -303.90624,80.17561 c 11.9039,2.99691 -10.08758,8.92312 0,0 z M 1095.66,234.32508 c 13.9745,17.83591 -6.4654,14.28653 0,0 z m -55.0336,14.25587 c 7.3607,0.69616 -1.291,5.7012 0,0 z m -187.12244,48.91068 c 2.08884,14.05735 17.74822,26.37151 5.40714,41.11158 0.9952,-18.05077 -0.24834,-25.08517 -10.63243,-12.85885 1.40879,-9.47558 3.24777,-18.88144 5.22529,-28.25273 z m -18.502,4.97146 c 16.61995,1.47823 -5.94431,26.07654 -2.64211,1.04558 z m 270.24844,-68.83987 c 1.9137,-2.59294 0.7107,4.40223 0,0 z m -312.88604,81.36793 c 8.25799,2.35906 -7.37473,10.05335 0,0 z m 123.25458,-30.89739 c 10.7059,-0.37713 -6.11653,9.0204 0,0 z m -42.80458,13.28186 c 8.33403,2.46057 -4.39082,11.55813 0,0 z m 55.02732,-13.23253 c 4.52394,8.93187 -11.5908,4.30486 0,0 z m 155.75882,-39.36011 c 27.6125,10.15812 -12.3705,16.44646 0,0 z m 39.344,-9.58123 c 13.2451,10.0673 -1.4072,8.90217 -1.675,0.9402 z m -14.1426,4.25218 c 1.9163,-2.5932 0.7139,4.40208 0,0 z m -46.3096,12.19822 c 4.1732,5.49496 -10.7123,12.7954 0,0 z m -36.6692,9.5848 c 4.1266,1.39836 -2.6043,3.48918 0,0 z m -115.28066,30.15739 c 14.4943,0.0511 2.73997,13.22186 0,0 z m -24.23938,6.31079 c 4.88109,-0.10053 -3.03313,2.61301 0,0 z m 180.80264,-46.58297 c 5.4553,0.978 -4.5716,3.85218 0,0 z m -20.3743,6.72463 c 22.684,-7.14492 3.3195,15.56955 0,0 z m -80.09324,20.88712 c 10.73196,5.59297 -8.22536,10.35966 0,0 z m -33.11928,8.99476 c 20.91291,4.17395 -21.41895,20.32108 0,0 z m -159.39612,41.49908 c 2.16105,3.8163 24.43609,22.62162 4.13805,21.49233 4.55929,32.67335 -17.30419,-27.91758 -4.13805,-21.49233 z m 10.145,12.09629 c -4.22081,1.59104 4.09626,-0.48343 0,0 z m 245.89664,-78.51233 c 16.7163,13.1355 -11.5499,5.54898 0,0 z m -184.51654,48.56495 c 4.98569,-0.61815 -0.46397,4.87605 0,0 z m -21.2852,8.39493 c 15.06393,7.44569 -0.21545,13.965 0,0 z m 43.5307,-10.08027 c 11.37092,3.41815 -2.73558,13.30196 0,0 z m -52.3228,14.12561 c 13.0707,-1.34997 -1.06696,12.83997 0,0 z m 142.7047,-36.45062 c 14.2741,0.58581 5.97191,14.7177 0,0 z m -9.75484,4.21534 c 7.94988,9.91572 -8.66103,8.76152 0,0 z m 128.82218,-32.32034 c 6.3019,1.21124 -4.3745,3.428 0,0 z m -76.0465,20.819 c 8.6865,4.56193 -13.91657,5.13859 0,0 z m -17.43854,4.29265 c 5.24789,12.89312 -9.07543,13.1192 0,0 z m 59.46984,-14.85838 c 11.9737,6.67623 -13.4584,7.46153 0,0 z m 75.5913,-19.0929 c 6.7449,0.19957 -4.4765,4.53523 0,0 z m -195.97102,51.22363 c 9.31838,3.63034 -5.35782,10.43684 0,0 z m 32.44328,-7.80431 c 16.00567,4.07476 21.65826,26.76706 4.65682,6.77799 -1.30719,-3.43854 -8.34864,-1.62368 -4.65682,-6.77799 z m -51.97722,13.58595 c 3.27946,0.59352 -2.38927,2.26445 0,0 z m 186.04716,-47.95387 c 16.2965,11.82934 -21.8893,6.31797 0,0 z M 974.90146,290.0929 c 19.18518,15.36918 -12.49113,20.30344 0,0 z m -155.6914,40.69517 c 7.05146,4.32597 0.49722,11.73412 0,0 z m 284.35364,-73.43281 c 8.6455,-0.11796 -2.8943,7.99127 0,0 z m -45.5847,12.49825 c 8.313,1.28742 -6.4658,7.1746 0,0 z M 801.00516,336.8973 c 33.09007,15.45835 -24.23092,11.56516 0,0 z m 221.15994,-57.13171 c 7.9428,3.3255 -3.1882,8.11557 0,0 z m -188.77824,49.34343 c 14.00403,5.34013 -1.56298,11.51617 0,0 z M 1098.461,261.1745 c 16.3191,14.16428 -7.0903,12.5472 0,0 z m -90.6957,24.19394 c 14.7497,2.48206 -2.485,16.69737 0,0 z m -70.66988,17.98444 c 17.85303,1.34413 10.61171,11.05603 10.16645,22.49311 -1.32491,-4.24661 -13.308,-16.97352 -10.16645,-22.49311 z m 59.89414,-14.92633 c 11.52134,0.11126 -6.06194,9.75406 0,0 z m -45.61584,12.54581 c 8.76422,1.8348 -3.72987,7.12197 0,0 z m 160.75248,-40.66644 c 9.5313,3.83842 -8.1102,9.0702 0,0 z m -202.20536,53.54766 c 15.34351,1.97789 -6.22366,9.37313 -0.4029,0.12211 z m -38.92228,10.83076 c 14.56482,3.91489 -4.20552,8.62395 0,0 z m 30.89178,-7.39899 c 6.347,2.21134 -2.53299,4.9029 0,0 z m 116.54766,-29.112 c 11.259,4.79923 -10.519,6.27593 0,0 z m -87.60722,23.57488 c 7.76958,20.29364 -13.13753,14.30424 0,0 z m -43.81482,13.1514 c 14.6191,12.59133 13.72908,26.51857 -4.75221,15.32853 -2.8884,-9.26565 13.62224,-3.6499 4.75221,-15.32853 z m 65.88266,-16.89124 c 3.27922,0.59465 -2.39037,2.26306 0,0 z M 1086.578,275.84978 c 14.9676,-4.43468 -1.7693,7.97911 0,0 z m -82.5594,21.50054 c 6.1073,0.87014 -1.6153,7.55694 0,0 z m -50.43338,13.18246 c 5.90863,6.40656 26.44754,7.75313 1.88042,10.38915 -4.70204,-1.2775 -4.6159,-7.29467 -1.88042,-10.38915 z m -138.37426,36.8446 c 6.95596,11.1588 35.50374,8.7556 13.11802,20.03961 1.09058,-9.40787 -20.59334,-9.6321 -13.11802,-20.03961 z m -15.3274,4.00631 c 7.68496,1.14009 -1.44089,6.82497 0,0 z m 260.91234,-67.52233 c 5.4539,0.97855 -4.5722,3.85189 0,0 z m -65.59764,17.39925 c 8.70904,2.06864 -0.39221,13.19912 0,0 z m -161.2405,42.56823 c 12.32746,8.72728 -15.82765,5.73928 0,0 z m -22.1524,6.46615 c 14.26223,22.01466 -12.35512,36.24293 0,0 z m -26.973,7.1898 c 13.27098,-1.50399 -2.03205,12.09069 0,0 z m 151.96226,-38.05104 c 11.28043,1.05553 -3.78249,13.72432 0,0 z m -62.34406,15.95752 c 8.38132,1.42063 -6.30378,10.65111 0,0 z m -10.3138,2.57719 c 9.17536,2.28152 -6.67942,5.87948 0,0 z m 245.22094,-61.19503 c 7.8906,0.25542 -3.8732,9.54326 0,0 z m -137.49324,36.41589 c 14.86695,7.38342 -9.69536,14.47697 0,0 z m -121.1256,31.6602 c 25.15757,24.29533 -10.61098,27.66642 0,0 z m 1.2779,9.12697 c -3.80135,7.19562 7.45013,3.92672 0,0 z m 172.78204,-53.9475 c 10.8539,9.38939 -10.5884,12.02591 0,0 z m -17.5603,4.78145 c 10.3106,4.43134 -7.94324,9.5054 0,0 z m -26.03574,7.96439 c 11.55302,7.77763 -10.96243,10.34591 0,0 z m 112.60304,-28.74642 c 8.9119,4.18009 -8.6398,5.81015 0,0 z m -10.7687,3.48021 c 12.4984,14.82036 -4.0755,7.0705 0,0 z m -280.34774,73.40536 c 8.25452,0.56331 -5.28016,6.12949 0,0 z m 190.8382,-47.8256 c 25.54204,14.8593 0.72341,27.37964 0,0 z m -76.81018,21.27278 c 12.05238,6.23519 -11.03803,6.89086 0,0 z m -45.00492,12.49787 c 9.05206,3.25014 -4.2762,12.31951 0,0 z m 140.68514,-36.15561 c 4.8351,3.32475 -1.9457,5.50749 0,0 z m -9.6591,2.52471 c 10.2718,0.10782 -4.1286,5.94651 0,0 z m -38.53814,10.19608 c 7.65433,1.72179 -5.88547,6.14515 0,0 z m -9.0546,2.24384 c 9.12595,1.74195 -4.5416,9.00603 0,0 z m -22.55788,5.89628 c 4.58278,0.0602 -2.45767,4.39782 0,0 z m -153.69342,40.22496 c 21.83371,1.48776 -10.97592,15.60121 0,0 z m -17.8674,4.83057 c 9.4848,-1.0337 -3.60933,10.03947 0,0 z m 319.67804,-80.19011 c 12.3729,-1.73046 -2.9551,6.64161 0,0 z m -332.87154,87.99172 c 9.74578,6.10879 -13.02347,17.4335 0,0 z m 259.37574,-67.0551 c 8.132,-1.37998 -0.9132,10.29216 0,0 z m -82.05172,20.89078 c 6.23646,5.81059 -9.8492,6.65743 0,0 z m 108.15202,-26.75032 c 13.0867,3.66741 -5.6518,12.6225 0,0 z m -39.90934,10.24219 c 2.92088,2.60125 -2.17717,4.18872 0,0 z m -87.32842,23.13287 c 19.37205,-1.49878 -11.49399,8.03887 0,0 z m -61.42828,15.74964 c 0.34923,11.00679 13.56189,14.33597 3.0004,16.709 13.91939,6.30375 13.59722,30.00598 25.58047,33.51491 -19.7344,33.38409 -7.12299,-36.54198 -27.99797,-20.50715 -30.02003,-8.85582 -7.8018,-13.31235 -0.5829,-29.71676 z m -4.7935,20.17505 c -5.13536,3.94717 7.28121,3.82545 0,0 z m -39.0403,-8.5683 c 19.2718,-6.47179 1.78769,7.82311 0,0 z m 22.5196,-5.3597 c 4.19396,0.31149 -3.20992,2.46413 0,0 z m 116.14456,-29.00661 c 4.06789,0.99308 -4.22608,3.2465 0,0 z m -41.80268,10.92647 c 4.32577,0.87377 -3.18772,2.81779 0,0 z m 68.70942,-16.60802 c 15.0664,14.3583 -10.9201,15.54448 -3.18562,7.52004 7.54452,7.47891 -1.87294,-7.03573 3.18562,-7.52004 z m -10.6441,5.48544 c 5.74519,3.73822 -5.59564,6.00454 0,0 z m 37.3187,-8.88691 c 20.52904,18.08273 12.11604,25.21099 0.33134,6.74489 z m 27.97194,-6.82736 c 13.2372,18.63018 -12.0255,8.48689 0,0 z m -156.79654,42.33549 c 7.89132,8.20042 -8.68599,12.96615 0,0 z m -126.9435,33.18088 c 19.87159,5.8735 -5.13937,14.11553 0,0 z m 237.2838,-61.34625 c 23.64949,12.09812 -6.05321,24.13803 0,0 z m -152.4492,41.05235 c 3.14746,-4.71362 0.52312,8.54708 0,0 z m 251.13714,-65.2933 c 8.0699,0.0497 -3.1079,7.87398 0,0 z m -41.6631,10.85674 c 4.5512,0.49044 -2.7251,4.93249 0,0 z m -20.7677,5.82223 c 3.9461,-2.17112 -0.4709,5.70214 0,0 z m -125.67424,32.4132 c 8.16268,0.6391 -5.36678,6.41142 0,0 z m -89.2606,23.88031 c 7.80634,2.73213 -1.7094,12.02227 0,0 z M 1056.2092,318.1726 c 5.8212,-0.0102 -2.624,2.91754 0,0 z m -186.85364,50.92097 c 6.65491,-0.86767 -0.5934,5.23 0,0 z m -63.3812,17.64782 c 13.577,5.77245 -7.58327,15.48231 0,0 z m -31.8977,7.3525 c 9.65905,0.1783 -4.24384,8.34263 0,0 z m -16.7767,5.31561 c 1.74506,9.44288 -21.95354,28.48935 0,0 z m 62.2872,-16.68481 c 4.58309,0.0594 -2.45721,4.39844 0,0 z m -31.7114,8.9647 c 3.38701,0.54988 -1.70476,3.89659 0,0 z m 263.18384,-66.71703 c 11.388,1.43489 -13.1178,4.53599 0,0 z m -284.57984,74.33658 c 6.64885,4.25735 -4.12572,9.50205 0,0 z m -42.3413,11.06736 c 11.44478,9.42401 -13.45413,9.63926 0,0 z m 211.93766,-54.52153 c 9.80261,4.13937 -2.65497,16.32808 0,0 z m -119.34146,33.68104 c 10.67332,0.43253 -5.95518,19.88506 0,0 z m -79.7156,20.097 c 14.86042,5.97908 -14.51428,5.27152 0,0 z m 43.4724,-9.87073 c 10.04201,-3.33353 -0.79814,8.20126 0,0 z M 1008.711,340.72424 c 8.3413,2.39457 -4.6942,5.07345 0,0 z m -179.60904,46.94679 c 4.12266,1.39618 -2.60139,3.49047 0,0 z m 5.4845,1.24725 c 23.15328,9.45462 -5.78654,27.00647 2.25935,3.4904 2.52565,-0.38921 -4.46317,-2.21846 -2.25935,-3.4904 z m 136.4437,-34.96606 c 14.03732,3.00988 -10.81387,5.825 0,0 z m -173.1571,45.93624 c 9.50786,7.03428 -6.49242,11.68881 0,0 z m -28.9011,8.95925 c 20.41971,0.28802 -12.80476,8.37889 0,0 z m -44.4645,12.84236 c 8.66241,7.2664 -11.44461,7.588 0,0 z m 145.1794,-36.51786 c 11.04463,2.43878 -5.57823,8.0245 0,0 z m -134.4462,35.14207 c 6.5954,3.84757 -2.86181,7.37935 0,0 z m 77.5608,-19.59735 c 6.1081,1.55485 -2.82323,8.53521 0,0 z m 202.38884,-52.22525 c 19.2248,17.9674 -44.21767,12.68727 -6.4793,7.79871 2.0238,-2.68181 3.5841,-5.88511 6.4793,-7.79871 z m -35.71564,9.33546 c 11.89283,9.13389 -7.1946,13.76014 0,0 z m -116.4169,30.42947 c 8.50666,4.84643 -1.97379,9.6801 0,0 z m -14.4412,5.35136 c 15.40207,2.99717 -12.34783,14.2093 0,0 z m 37.2588,-7.13722 c 11.25092,0.13146 -7.32007,5.07241 0,0 z m -65.191,16.91706 c 11.39404,1.82057 -6.83681,8.25915 0,0 z m -38.8209,10.82302 c 5.75342,0.43753 -2.54467,5.60619 0,0 z m -30.0995,10.07802 c 1.7715,-0.57244 -0.46308,4.64917 0,0 z m 0.6611,2.53018 c 1.77208,-0.57358 -0.46281,4.65045 0,0 z m 264.98644,-68.77027 c 5.2282,2.9195 -3.8399,3.62596 0,0 z M 851.60926,401.3867 c 6.69538,2.22138 -4.59465,5.205 0,0 z m -74.4735,19.60981 c 2.14841,7.62877 -2.83885,2.09917 0,0 z m -48.5992,12.55943 c 3.38702,0.54936 -1.70449,3.89747 0,0 z m 299.38834,-77.57938 c 6.5544,4.48713 -8.8171,5.05364 0,0 z m -207.39484,54.20962 c 2.72889,2.03067 -2.61727,3.29696 0,0 z m -5.4818,1.43284 c 5.09412,0.30283 -2.4203,3.35145 0,0 z m -18.1177,4.86474 c 5.95864,0.34613 -4.0822,5.31274 0,0 z m 168.1787,-43.26458 c 3.84802,0.0673 -3.13049,3.95707 0,0 z m -71.8608,18.6354 c 8.71965,2.03681 -4.95343,6.48197 0,0 z m -91.4384,24.08162 c 7.94642,0.97096 -4.04097,7.28826 0,0 z m -85.3142,23.47062 c 8.04599,4.57983 -1.28102,4.02548 0,0 z m 47.3256,-10.81317 c 9.12167,0.70343 -2.66419,10.24227 0,0 z m -19.8572,5.66068 c 4.12425,1.39772 -2.60281,3.48963 0,0 z m -16.7741,4.38446 c 26.92074,23.37103 -10.41408,9.24846 0,0 z m 161.9618,-41.63778 c 10.43355,-1.1459 -3.69868,5.88128 0,0 z m -69.7836,18.21946 c 5.09353,0.30181 -2.4186,3.35243 0,0 z m -80.932,21.15436 c 3.27958,0.595 -2.39098,2.26316 0,0 z m -4.717,2.92247 c 2.44511,-5.83852 -0.28001,13.92813 0,0 z m -29.2365,6.6282 c 1.6535,17.42898 16.22978,8.66197 22.09425,10.14403 13.03258,-2.78176 -15.7973,15.87983 5.53614,21.41239 -3.9004,-4.73377 44.78611,10.3678 16.15591,-4.99693 19.17565,-7.21294 30.62758,23.63164 0.1889,11.38591 -12.58702,0.90681 -41.55792,8.78928 -22.93742,-7.11147 -17.96345,4.11978 -23.2955,-16.7529 -21.03778,-30.83393 z m 13.7103,13.987 c -4.14352,7.24137 5.40108,1.34238 0,0 z m -3.3988,4.9431 c -4.91548,4.2788 6.44003,2.09072 0,0 z m 110.0059,-46.878 c 11.49573,19.06739 -2.43119,16.30607 0,0 z m -73.3193,18.37002 c 19.17883,-1.66054 10.11774,20.82186 0,0 z m 91.2802,-22.48988 c 27.49299,11.01612 -11.2064,36.47356 -3.19937,19.53643 25.65799,1.89004 -1.80633,-11.96237 3.19937,-19.53643 z m 190.45574,-49.12736 c 11.4645,3.75807 -7.5717,9.86256 0,0 z m -320.42534,84.42971 c 5.35125,3.76857 -4.31209,4.65448 0,0 z m 59.2434,-14.80938 c 4.91964,0.89164 -3.58452,3.39539 0,0 z m 63.1284,-14.47338 c 7.59387,1.74373 -10.73741,9.40528 0,0 z m -79.6385,24.87096 c 6.69795,8.80109 -5.63286,11.4533 0,0 z m 179.13962,-46.03466 c 15.51229,-1.29645 -8.45318,23.33082 0,0 z m -35.39444,10.21711 c 13.50831,4.15523 0.7934,17.49425 0,0 z m -120.47318,31.76208 c 26.09535,5.23833 -4.45316,11.86065 0,0 z m 32.6484,-7.85795 c 14.35121,0.87768 -5.42947,15.18661 0,0 z m 71.1508,-17.2462 c 10.03542,0.10977 -3.64392,6.46854 0,0 z M 741.35146,452.668 c 11.92085,-0.74505 -3.79021,8.29061 0,0 z m 50.89,-12.11151 0.77962,2.29398 z m 34.4103,-6.1697 c 6.71999,3.43939 -3.26255,13.37155 0,0 z m -77.3189,20.08921 c 10.9452,5.36712 -8.60812,3.86142 0,0 z m 50.0236,-12.3998 c 5.74594,-0.20062 -3.75614,2.53191 0,0 z m -63.0545,17.15729 c 6.35833,1.62063 -4.56571,4.31983 0,0 z m 9.0731,-1.69582 c 6.87239,12.13443 -6.15436,7.43208 0,0 z m 34.8983,-6.91133 c 1.77165,-0.57313 -0.46314,4.64951 0,0 z m 90.0746,-21.82348 c 17.6279,-0.46575 -10.20822,10.83325 0,0 z m -133.0058,35.05847 c 6.38879,0.81517 -3.23658,7.55594 0,0 z m 201.98826,-52.28987 c 7.94666,-0.45301 -2.5208,6.85408 0,0 z m -79.24166,21.16427 c 10.40332,-1.46418 -3.00551,6.18574 0,0 z m -47.1878,12.28628 c 3.59718,-1.41399 -0.35566,3.95202 0,0 z m -60.4789,16.41862 c 3.35976,-0.45846 -2.16255,3.87014 0,0 z m 147.00488,-37.41096 c 7.31427,2.68733 -3.01785,6.51679 0,0 z m -14.10328,4.79146 c 6.27371,-3.49056 -2.40338,12.02791 0,0 z m 10.23719,0.54129 c -0.57252,-10.10467 3.91315,12.00064 0,0 z m 24.69513,-8.07407 c 4.34883,-0.22654 -0.94081,2.46454 0,0 z m -106.37742,30.36161 c 3.14693,-4.71381 0.52346,8.54703 0,0 z m -20.0277,4.15334 c 4.25539,24.31287 11.59136,6.88604 18.63574,4.48593 18.01019,7.47418 44.55548,-12.07129 42.13716,20.20905 -7.7566,-17.37417 -20.40784,-20.42966 -3.5481,-1.27761 -13.88554,13.25587 -12.10943,-30.90582 -17.55203,-3.09587 1.09487,6.05021 -14.11618,-9.95162 -17.55841,0.70736 -10.09461,-1.41591 -34.36007,17.3218 -19.39906,-4.79145 -0.82433,-5.42875 -5.79285,-10.63181 -2.7153,-16.23741 z m 19.6111,12.049 c -0.85108,3.65789 3.97723,-1.09715 0,0 z m 29.0339,-23.53544 c 10.53938,0.52474 -8.55912,5.63145 0,0 z m -67.1236,20.93053 c 6.44945,-1.69783 -3.45197,10.18789 0,0 z m 53.2211,-13.9111 c 5.91322,3.05807 -6.41984,3.69276 0,0 z m 124.27496,-31.13203 c 3.97882,0.27375 -3.31734,1.74878 0,0 z m -42.02298,11.32392 c 8.03249,0.78944 -2.46231,6.83643 0,0 z m -124.36908,32.84404 c 11.9948,7.28516 -9.85187,11.51461 0,0 z m 146.15532,-34.82354 c 5.4331,0.2572 -4.2822,2.95616 0,0 z m -64.27392,16.80019 c 7.06787,9.85866 22.20248,2.08584 4.28118,9.84113 -2.46456,-1.68445 -6.61279,-7.47435 -4.28118,-9.84113 z m -13.0128,4.90827 c 20.31129,14.70734 -11.44161,11.62641 0,0 z m -73.3108,19.00616 c 15.91915,23.50856 -26.00557,11.23922 0,0 z m 116.08968,-27.64073 c 21.56117,3.68273 -18.93918,25.99453 0,0 z m -14.79058,18.05753 c 5.33466,2.04201 -3.73069,5.56055 0,0 z m -19.9697,7.25766 c 20.8594,2.8363 1.07401,16.92343 -5.1279,1.63815 z m 13.4704,0.0584 c 6.95675,-0.36163 -3.96619,6.06082 0,0 z m -54.1638,14.64303 c 8.19222,-1.28057 -0.84902,4.68575 0,0 z m 41.3503,-5.42255 c 8.85566,4.49145 -7.11428,9.92904 0,0 z m 25.6323,-1.29356 c 8.38519,2.36292 -2.04889,6.11929 0,0 z m 152.96824,63.27406 c -12.438,-40.75042 25.8134,27.7953 3.285,4.7395 5.0875,-6.25572 -2.7338,-1.3856 -3.285,-4.7395 z m 11.414,20.95005 c -1.8744,-5.98202 12.8615,1.24902 7.2603,-17.52656 9.5387,-4.98587 1.1238,26.82998 18.5069,12.35657 -15.8752,-19.73415 12.8452,-0.58618 22.4232,-8.35402 28.6644,11.60153 -16.2698,8.89647 -18.9198,27.7616 -21.8095,27.43297 22.0362,-10.77315 8.4786,8.04722 19.0867,-14.87023 13.9724,3.96234 -0.5883,6.80423 23.4488,-9.23028 5.4123,13.35628 14.2931,12.43092 10.5167,5.90653 23.6326,-34.55314 15.0013,0.48587 -14.3877,3.61676 -19.7754,9.7535 -8.9146,25.02093 8.2039,-2.80296 29.7935,34.0122 19.3546,7.10245 3.0349,-24.07172 3.6646,-13.42544 8.723,1.52149 28.4356,-14.10816 -10.9024,13.55959 1.8427,20.69 31.7872,19.19013 -25.4063,23.5418 -20.5775,-3.96385 -16.9556,-22.52298 -36.9661,-53.23896 -57.0606,-80.97394 l -4.6794,-5.89987 z m 18.5979,13.05854 c 16.8303,2.88028 35.0732,-38.302 6.2837,-12.2931 1.6598,8.42628 -13.0064,5.3652 -6.2837,12.2931 z m -2.9478,-8.745 c 4.2473,-0.47005 0.8164,-6.84287 0,0 z m 28.1267,43.54537 c 5.0163,2.86239 0.2336,-6.94369 0,0 z m -58.1897,-97.5009 c -2.4729,-15.45261 12.8572,-21.03347 15.7847,-12.45329 13.2328,-11.1181 25.8406,19.77477 31.8592,-8.40756 12.0135,-10.66509 23.2284,13.69093 -1.1181,5.02891 -0.7319,14.7649 37.8214,2.32164 14.7448,18.23233 1.3296,2.92183 5.6317,15.65371 -9.175,6.9354 10.2581,-38.96413 -41.5756,22.09338 -26.8233,-14.8676 -10.6756,-7.26957 -13.7874,18.96693 -14.4533,-1.10693 -4.0297,1.51017 -6.6654,5.30837 -10.819,6.63874 z m 25.7735,1.94088 c 15.7259,2.20356 4.6658,-14.23129 0,0 z m 50.8527,139.07439 c 0.3366,-3.59966 3.3512,3.42113 0,0 z m -64.6707,-120.38279 c 8.8567,-8.1201 14.4883,19.14593 0,0 z m 87.0169,150.55129 c 10.4229,-19.30238 22.8722,9.27031 30.1515,17.5426 -9.3269,21.29365 23.5995,-14.04511 13.1816,13.23887 30.6239,8.28301 45.7279,-8.69004 50.6329,-34.60219 8.8771,27.49228 21.2499,-33.52706 -1.8687,-15.00425 -18.2476,-21.5036 31.2855,-10.12667 17.7662,-39.05676 -34.1123,-3.35317 40.4543,-13.34189 19.5627,18.93254 -12.0435,38.48905 -38.2899,73.16847 -75.0015,91.03746 -26.6728,5.99088 -36.2419,-39.40305 -54.4247,-52.08827 z m 39.3921,46.47482 c 19.159,9.47879 -4.8737,-14.23102 0,0 z m 8.6282,-10.79772 c 16.8458,17.95642 13.1841,-10.6809 0,0 z m 63.1814,-56.92377 c 23.3197,-4.45521 -5.5959,-32.02574 2.7648,-2.45803 1.1606,-0.51303 -9.4741,2.61419 -2.7648,2.45803 z m 1.8665,-27.03261 c 20.6714,14.89757 2.3855,-23.98314 0,0 z m 8.2236,7.19818 c 4.9669,1.42209 -1.1907,-5.2684 0,0 z m -175.7727,-62.2405 c -3.3349,-3.92799 7.241,-0.36177 0,0 z m -52.1868,-101.98681 c 1.5255,-16.41836 23.0658,-4.18753 4.9123,-22.15063 6.7076,-2.42815 17.7926,-33.8282 16.1024,-6.97009 -17.8008,9.96812 9.4206,8.55569 -2.566,22.14635 24.6887,-1.62309 -16.2764,24.26818 -18.4487,6.97437 z m 37.6032,65.88446 c -0.2092,-3.32639 2.7707,1.77712 0,0 z m 42.8391,74.72812 c 19.4133,-12.22595 21.7092,17.49797 0,0 z m 99.2588,174.80691 c 1.7024,-17.84152 19.817,-25.38016 39.9017,-34.34515 16.4102,-33.12208 60.8129,-53.3647 60.6023,-94.27736 9.103,-17.38618 36.9513,-33.98894 21.3805,-54.0069 30.1428,0.83677 -6.5785,-40.7438 24.2873,-42.50396 12.1088,-16.26392 -1.8059,35.04012 -9.1232,44.12724 -19.7656,59.22985 -54.1279,113.76973 -100.2017,156.45138 -9.6289,9.75568 -24.8173,20.98862 -36.8469,24.55475 z M 1344.461,590.83917 c 6.2688,4.81843 0.01,-6.26098 0,0 z m -184.5748,95.79819 c -0.2095,-3.32683 2.7707,1.7771 0,0 z m -51.2811,-95.74252 c 4.1393,-15.17165 12.4059,0.41812 0,0 z m 49.8749,84.9384 c -3.2407,-16.3917 1.1449,-31.76135 9.2385,-9.21693 -20.2829,2.92762 29.2691,19.93062 -0.6585,16.29416 0.4157,-5.61174 -5.8684,-4.31409 -8.58,-7.07723 z m -78.1589,-146.57481 c 1.6972,-9.79609 10.7339,4.37522 0,0 z m 70.1149,125.86177 c -4.4582,-3.86527 6.818,-0.44534 0,0 z m -44.2771,-83.78973 c 6.0985,-5.71409 5.7669,11.18159 0,0 z m -22.7273,-47.94515 c 1.4265,-11.46264 5.4978,9.82073 0,0 z m 43.0168,79.80564 c 1.3386,-7.62172 5.1327,4.47075 0,0 z m -11.9101,-24.657 c 0.5884,-12.86018 13.3282,-31.43352 7.1307,-9.36063 4.3214,6.47081 0.058,16.52968 -7.1307,9.36063 z m -50.4138,-94.43469 c 15.5268,-13.15652 -1.2655,-11.06906 -2.9806,-28.76898 4.0306,12.72833 51.5016,20.67533 2.9806,28.76898 z m 87.2161,159.42312 c 7.6129,-19.22072 29.375,-8.20627 5.3327,1.80463 z m -9.0352,-17.99688 c 2.2603,-9.39944 7.7197,2.81275 0,0 z m -16.0665,-32.34014 c -2.6756,-1.80128 4.924,-1.98869 0,0 z m -63.6511,-117.09514 c -0.2104,-3.32677 2.7709,1.77688 0,0 z m 118.2007,217.52499 c -0.039,-11.03837 9.2847,3.20241 0,0 z M 1074.622,496.52523 c -0.6152,-4.53613 5.443,1.46387 0,0 z m 112.9533,206.79761 c -7.0816,-24.07381 53.6444,-12.94958 18.7722,-24.81847 -30.7447,-7.34242 16.8039,-27.57451 26.3841,-6.53565 -11.2376,1.39309 -36.393,-11.03092 -13.3048,4.76245 18.5595,8.85619 -11.9246,33.09949 -11.3804,14.15173 -43.9162,2.47186 30.3322,16.42355 -20.4711,12.43994 z m -91.6162,-171.29683 c 9.8596,-9.90614 11.9424,12.93937 0,0 z m 44.4699,80.58756 c -4.0137,-5.12872 5.5974,-1.22328 0,0 z m 31.0106,55.46786 c 2.2195,-11.03275 8.7602,10.87582 0,0 z m -40.6971,-76.17137 c 2.4314,-10.74487 12.2476,2.64812 0,0 z m 3.8772,5.76549 c 24.0629,-16.61048 27.1116,22.40965 6.9986,3.85815 3.4866,-4.83335 -0.3182,-11.56539 -6.9986,-3.85815 z m 28.9201,48.8382 c 10.211,-14.53239 18.2345,-0.30144 0,0 z m 17.775,31.6171 c 4.7395,-17.52717 9.8427,14.05243 0,0 z m -10.2576,-20.2458 c 0.8512,-18.19757 12.6395,-12.61977 14.6504,-1.30216 22.5072,11.32546 -2.7043,12.71843 -14.6504,1.30216 z m -63.9679,-120.50931 c 4.6644,-7.66923 10.4486,6.5142 0.2232,0.35829 z m 40.4724,74.53224 c -0.242,-5.59509 4.5131,1.80251 0,0 z m -94.8979,-178.78582 c 18.1867,-41.92158 23.5314,34.21765 0,0 z m 6.2339,-0.83699 c 10.8515,3.77848 1.0415,-15.71505 -0.3513,-0.6011 z m 94.7491,186.71297 c 9.6778,-11.66745 8.7515,0.96418 0,0 z m 34.7929,64.02941 c 2.7061,-5.35091 7.5455,-1.16943 0,0 z M 1133.758,579.9727 c 4.118,-17.22281 14.2637,-2.20011 0,0 z m 2.9348,6.34754 c -3.3326,-7.22618 5.6201,1.16461 0,0 z m -5.4213,-15.34641 c 0.5914,-6.83512 9.3654,0.88604 0,0 z m -2.127,-5.71209 c 1.8405,-12.85778 15.8527,-2.86258 0,0 z m -76.6457,-143.83593 c -4.4728,-2.24083 6.7799,-1.76538 0,0 z m 53.4814,100.26528 c -0.1479,-6.1694 4.7298,1.59978 0,0 z m 0.5676,-5.8025 c -0.1597,-5.75423 5.5538,-0.7336 0,0 z m 13.469,24.78716 c 1.919,-15.43955 13.0189,11.64548 0,0 z m -40.8761,-76.59351 c 2.0689,-8.12894 14.2612,3.78816 0,0 z m 62.6615,112.5787 c 0.3679,-4.33983 4.0118,1.69073 0,0 z m -27.2408,-51.56643 c -0.1545,-31.02094 3.013,0.71666 18.1838,-0.94465 -5.6428,2.361 -13.1104,7.75832 -18.1838,0.94465 z m -39.5871,-74.15593 c 7.1851,-8.89106 13.2932,16.2513 0,0 z m 113.2795,203.91364 c -2.4182,-9.30183 10.1468,1.14129 0,0 z m -35.0443,-65.41491 c -11.0033,-28.33503 27.0312,-1.86279 0,0 z m -9.0751,-21.22309 c -1.6362,-14.10999 12.7986,11.99713 0,0 z m -53.2488,-98.94984 c -0.945,-15.1114 13.3206,8.38899 0,0 z m 91.1636,166.94157 c 3.4921,-15.87215 28.0196,-6.99772 18.7661,0.0995 -0.5546,-17.70853 -11.7723,1.46935 -18.7661,-0.0995 z M 1135.729,542.5691 c -7.3226,-7.74538 10.3557,-1.57528 0,0 z m -33.0042,-60.9148 c -2.9773,-1.23631 4.1028,-1.7499 0,0 z m 35.7447,66.96153 c 20.5971,-23.09859 15.5611,25.3803 0,0 z m 27.227,49.285 c -5.0229,-15.69678 8.5604,8.83713 0,0 z M 1088.046,454.45187 c 0.7197,-12.84428 10.6007,10.78226 0,0 z m -24.0321,-45.86103 c -7.5218,-20.53748 29.1407,0.2348 0,0 z m 3.4689,6.64959 c 3.0154,-10.99894 7.1209,7.64379 0,0 z m 111.7607,204.32547 c 0.3684,-4.33941 4.0118,1.6903 0,0 z m -66.56,-125.86356 c -16.0107,-26.16976 16.7629,-8.72388 4.241,4.29503 -4.2275,0.75759 -1.1706,-4.47776 -4.241,-4.29503 z m -25.4116,-46.46531 2.3634,-1.76216 z m 34.191,61.76837 c -5.9938,-16.80892 16.6565,2.19414 0,0 z m -37.4596,-70.18828 c -1.8443,-19.63629 35.8411,-10.52513 4.6411,-0.83113 l -2.3925,1.34389 z m 92.5436,170.30822 c 2.4456,-8.58217 10.9719,4.00021 0,0 z m -42.1135,-79.68818 c -2.2363,-3.15292 3.9229,-0.60332 0,0 z m -60.3755,-112.10857 c 8.1698,-10.83077 7.4184,12.29508 0,0 z m 130.6688,239.54794 c 11.7339,-11.40587 23.9746,-0.3345 0,0 z M 1095.048,453.66495 c -2.4753,-17.00217 14.0878,5.3897 0,0 z m 6.1149,10.76531 c -3.0595,-14.47795 16.0521,-0.84483 0,0 z m 39.4766,69.02854 c 0.2582,-9.20785 10.336,1.80481 0,0 z m 44.7994,82.44441 c 10.2212,-3.20067 26.33,-28.94847 19.6383,-2.93398 -7.061,-2.91781 -13.2455,8.25837 -19.6383,2.93398 z M 1066.6982,396.01552 c -0.8125,-15.04658 12.4119,-2.45229 0,0 z m 135.8392,249.98502 c -0.7133,-9.25002 6.9864,2.82125 0,0 z m -37.0347,-69.52425 c -0.5682,-5.11783 6.1173,1.57932 0,0 z m 39.8058,73.25452 c 2.6963,-7.82426 7.0588,2.26961 0,0 z m -73.2726,-136.64048 c -2.0199,-6.66548 6.836,2.39549 0,0 z m 43.7965,80.05316 c 3.0371,-9.89938 10.7477,-0.43975 0,0 z m -99.1442,-184.22137 c 0.4361,-6.70142 6.1699,4.87317 0,0 z m 16.5353,30.42977 1.4776,-1.07481 z m 33.3429,57.25291 c -2.7079,-6.88887 4.3039,1.28994 0,0 z m 56.3204,103.30895 c -0.8726,-6.48569 7.8745,2.71129 0,0 z m 27.7179,46.55218 c -2.9818,-21.61486 20.949,-4.88518 0,0 z M 1100.4503,436.90778 c -1.2476,-5.88695 12.3806,-0.0292 0,0 z m 11.8343,21.83329 c -4.2236,-26.06005 31.9493,3.11253 0,0 z m 7.2016,13.78853 c 7.1053,-16.95452 33.7138,9.32395 5.1645,0.1534 z m 18.7397,34.57093 c 3.2199,-6.07351 9.3953,3.1644 0,0 z m -3.7672,-8.30223 c 6.2614,-8.08271 16.7529,2.69657 0,0 z m 36.1071,66.44799 c -0.628,-9.44588 8.168,4.45859 0,0 z m -37.7469,-73.85908 c -4.3879,-15.31768 8.3047,-4.89256 0,0 z m 30.5215,56.4554 c 0.7538,-4.3995 5.1225,1.25776 0,0 z m 41.0248,75.49824 c 2.1993,-20.41782 14.0545,-0.59074 0,0 z M 1077.775,387.10063 c -7.8523,-15.60998 9.8233,-37.98404 16.0786,-9.9882 19.9273,-17.65223 9.5867,33.72191 -1.7045,1.91543 -10.7881,1.04426 -7.6684,-6.12088 -14.3741,8.07277 z m 29.2873,53.06549 c -0.956,-7.29951 7.2261,0.11092 0,0 z m -13.7959,-26.7579 c -0.5875,-20.98927 25.5382,-12.15773 0,0 z m 101.0916,186.03877 c 1.6718,-5.72658 4.8487,1.18506 0,0 z m -95.0875,-176.35914 c -4.1635,-8.97446 6.689,5.07198 0,0 z m 64.991,119.60334 c 9.4691,-16.2465 5.1989,9.8367 0,0 z M 1089.359,403.47852 c -0.083,-5.76377 7.3584,1.75675 0,0 z m 68.9993,126.97992 c -0.3143,-3.64968 2.3403,1.72413 0,0 z m 66.4088,117.97085 c 0.306,-6.78295 13.1105,-0.95742 0,0 z m -116.8868,-216.34175 0.9184,-0.38523 z m 46.8937,86.04093 c 7.2564,-26.95766 18.4899,-4.57555 0,0 z m -6.5181,-13.10499 c 3.5716,-6.84732 10.4948,3.72206 0,0 z m 25.7648,44.62143 c -3.0216,-15.38989 15.0015,3.42853 0,0 z m 41.531,75.50511 c -1.5082,-11.68827 9.1275,5.40098 0,0 z m -49.4398,-91.37249 c -2.0691,-9.88563 8.6838,3.51657 0,0 z m 57.3356,104.81256 c -10.0431,-21.36378 17.4168,-0.18016 0,0 z m -32.534,-63.27869 c 6.0404,-6.23559 9.1058,12.19502 0,0 z m -51.3362,-95.84325 c 7.0462,-6.89593 13.9766,0.76357 0,0 z m 41.5042,76.38036 c 6.0658,-18.98862 13.3791,8.08613 0,0 z m -32.0471,-62.17139 c -4.7544,-5.04617 9.5314,-2.03123 0,0 z M 1128.136,454.8589 c 2.9389,-28.53533 10.5288,2.34705 0,0 z m -9.7764,-18.82058 c -0.5941,-16.68598 20.2542,4.75838 0,0 z m 32.4927,60.07073 c 0.1577,-6.47687 5.5056,6.14335 0,0 z m 60.1652,110.72214 c 6.8216,-9.29563 16.3755,8.26997 1.8455,1.08563 z m 19.3643,34.32455 c -3.5907,-3.64096 4.8216,-1.37172 0,0 z m -39.2735,-73.70253 c 0.236,-9.83928 9.5548,4.00347 0,0 z m -82.5735,-153.3297 c 5.272,-22.50955 18.867,11.43559 0,0 z m 102.2142,186.73578 c 0.6572,-6.53717 4.6814,5.12661 0,0 z m -43.7484,-83.24909 c 0.6507,-11.11912 10.7392,3.8996 0,0 z m -18.1175,-34.71132 c -1.0463,-4.46133 4.8588,1.32374 0,0 z m 74.197,131.43666 c -0.9475,-16.30236 13.6801,9.88245 0,0 z m 7.6784,16.4549 c -5.4516,-23.92943 15.5124,10.82145 0,0 z m -77.3308,-146.17866 c -2.9775,-1.23613 4.1023,-1.75018 0,0 z m 24.751,45.22863 c -5.4197,-15.93553 13.5873,2.7639 0,0 z m -57.7006,-107.53067 c -2.5125,-15.34303 14.247,8.23274 0,0 z m 71.6081,131.89023 c 9.142,-11.25317 15.0772,-3.59668 0,0 z m 49.681,88.50245 c -4.2004,-13.72321 9.2654,-2.14309 0,0 z m -155.076,-286.59003 c 1.7251,-12.50338 19.8349,-31.49974 15.6717,-9.2709 -5.3637,1.28667 -9.7352,13.19016 -15.6717,9.2709 z m 61.4895,113.09184 c 5.4554,-15.07345 32.9663,-3.45389 6.1693,2.23868 -1.5476,-4.25898 -5.1037,-0.19242 -6.1693,-2.23868 z m 63.5478,117.03127 c 8.805,-21.20907 42.2446,-6.37259 14.5324,-2.69812 -4.8737,2.52785 -9.0182,10.79232 -14.5324,2.69812 z m 19.7084,32.92671 c -4.1902,-4.67523 8.7495,0.35505 0,0 z m -42.9811,-78.82819 c 4.8751,-5.62252 6.1113,2.79136 0,0 z m 17.43,29.67169 c -2.4113,-18.32376 13.5723,12.31837 0,0 z m -35.8925,-67.42251 c 4.0514,-10.08239 13.2781,7.18105 0.2514,0.46283 z m 5.1071,9.39853 c 1.364,-6.46242 7.4035,5.42167 0,0 z m -75.3376,-142.3012 c -5.5413,-9.63101 11.2367,-3.23674 0,0 z m 30.288,53.57713 c 0.3005,-9.26203 7.5293,1.98809 0,0 z m 66.7399,121.71478 c 11.5073,-6.36097 35.4522,17.57092 38.4822,-5.35194 6.6189,7.65281 -8.9408,32.49046 -18.5374,16.07313 -17.1461,4.10372 -7.1335,-14.61687 -19.9448,-10.72119 z m -78.4494,-145.47177 c -2.9773,-1.2365 4.1025,-1.74931 0,0 z m 9.3918,17.09416 c -1.8859,-5.45705 3.1062,1.34025 0,0 z m 19.4497,35.3965 c -0.5294,-9.31697 11.0019,1.24742 0,0 z m 36.9611,64.94083 c -5.313,-8.95736 11.1259,-1.78415 0,0 z m -70.9365,-130.06346 1.1664,-0.51063 z m -14.8432,-28.42644 c -0.2717,-12.69272 12.8244,3.69226 0,0 z m 128.4639,235.77217 c 0.8029,-10.4423 8.8741,10.47819 0,0 z m -11.7858,-22.43974 c 0.4567,-6.96071 6.8969,5.78566 0,0 z m -96.9538,-179.97752 c -19.8571,-26.58422 37.3152,-23.20776 15.7145,-14.32365 -16.5727,-12.34475 -2.1899,17.0599 -15.7145,14.32365 z m 70.3937,129.75219 c 19.474,-23.36802 19.7891,22.85674 0,0 z m 6.5143,1.03304 c 7.6254,-0.0556 1.1673,-6.86904 0,0 z m -12.7821,-13.93684 c -1.3005,-10.69718 6.9615,3.99993 0,0 z m -5.1931,-12.32603 c -8.5846,-20.45126 11.1652,-1.8118 0,0 z m -41.4776,-80.4104 c -1.8691,-16.83959 16.3785,11.74361 0,0 z m -26.7771,-52.01624 c 2.4791,-6.63434 7.5928,4.95248 0,0 z m 112.4859,207.00786 c 5.6227,-1.79916 2.9621,2.67759 0,0 z m 15.4319,27.02981 c 15.1472,-8.03254 30.3566,-15.12261 38.1022,-31.2863 -18.7014,-4.7448 8.001,-9.69873 10.5618,2.25149 -3.9351,-4.72407 5.7738,-35.49145 -13.9417,-19.09429 10.7308,-7.63242 22.9603,-34.44917 -0.375,-12.96286 -6.1385,19.28695 -12.3416,-26.97194 6.2666,-10.87697 21.306,-3.70356 -13.2963,-25.62223 8.2615,-27.68484 -2.063,-11.98964 -15.1021,-31.09464 -19.8477,-39.56773 19.4534,2.65991 23.8052,-1.94893 9.5886,-12.17707 15.8159,-12.29985 -36.3589,16.86949 -9.9743,-0.22974 11.1072,-7.08761 -24.3143,3.83017 -10.0672,-17.11996 18.4884,-19.49183 58.37,-3.30429 49.0764,29.75419 10.5407,32.95164 3.9326,64.93725 -1.3135,97.75987 -1.1891,15.67127 -15.5278,69.34458 -31.8805,51.00475 0.2182,-6.7265 28.1927,-33.88308 0.4351,-24.65138 -0.3011,5.83482 -13.5758,8.04063 -22.7081,14.99243 6.8221,6.97056 29.0087,6.24908 6.0508,9.06616 -6.9105,-0.81684 -14.8785,-2.14378 -18.235,-9.17775 z m 43.8997,4.10206 c 3.2681,3.62907 -0.1724,-4.00205 0,0 z m 7.795,-40.43095 c 20.7086,11.39062 -3.587,-23.99223 0,0 z m 2.9222,-26.11867 c 3.5441,3.34942 1.94,-4.86384 0,0 z m 3.434,6.31943 c 4.8714,5.09232 1.108,-6.38585 0,0 z m 0.6655,-8.36089 c 7.749,1.11758 0.9672,-5.63758 0,0 z m -10.7673,-23.92344 c 15.231,20.05313 3.4468,-9.39357 14.6822,-15.02671 -11.5792,-13.40648 -11.6269,10.79676 -14.6822,15.02671 z m 0.598,-26.28781 c 12.0813,-2.24066 16.1124,-35.0106 0.018,-15.3968 7.3624,5.45853 1.4386,9.37979 -0.018,15.3968 z m -25.4129,-48.13673 c 21.1395,1.68173 8.69,-16.57767 0,0 z m 45.3298,82.81343 -0.5267,-3.72493 z m -17.011,-60.84611 c 29.8432,-2.8705 -9.0841,-27.65618 2.6728,-5.00351 l -2.3879,2.26766 z m -151.8605,-50.96307 c -7.1882,-13.03232 10.9933,1.54069 0,0 z m 70.8692,127.57844 c -2.1765,-6.461 8.6874,3.24936 0,0 z m 2.8854,5.61761 c -0.679,-8.46609 7.0249,3.38589 0,0 z m -50.9962,-95.47438 1.1673,-0.51059 z m -42.2291,-78.82705 c -7.3479,-23.88351 36.647,-20.26785 11.708,-8.89266 24.0216,8.70436 -1.1044,6.48158 -11.708,8.89266 z m -7.5479,-15.5494 c -8.7641,-24.0924 54.7405,-35.94961 13.5425,-14.71165 2.1744,7.5145 -7.3427,13.42703 -13.5425,14.71165 z m 36.4682,67.40373 c -5.1114,-14.03589 32.473,-26.47344 0,0 z m -47.6203,-90.42907 c 3.3725,-34.32224 16.4451,11.52771 0,0 z m 31.4344,56.43227 c -3.4437,-4.58476 5.8635,1.15441 0,0 z m 79.3918,142.82295 c -1.9569,-16.80872 25.6608,1.1761 0,0 z m -67.6578,-128.68099 c -6.5836,-0.37026 8.2137,-3.0021 0,0 z m 10.0509,21.7081 c 0.1258,-8.6927 9.2047,5.14156 0,0 z m 90.2636,165.82532 c -5.3926,-10.226 8.7603,1.23618 0,0 z m -56.0359,-106.3583 c 11.6816,-9.85665 18.9498,8.18519 2.3271,5.17286 z m 27.8297,53.60078 0.916,-0.38555 z m -107.778,-199.71318 c 1.8127,-5.1606 7.1309,1.40802 0,0 z m 69.7493,126.66266 c -4.5835,-10.71046 10.8134,5.46871 0,0 z m 19.1121,34.13009 c 1.6661,-11.94445 8.9492,5.31255 0,0 z m -54.8388,-103.65045 c 14.1626,-39.52768 20.4432,10.37452 0,0 z m 21.6726,39.88387 c 1.2048,-8.03574 6.0072,3.35927 0,0 z m 71.9835,132.47159 c 2.1218,-12.78291 14.1347,-4.50834 0,0 z m -27.6224,-54.34175 c -1.5943,-12.7741 11.5201,4.53127 0,0 z m 40.6328,74.1311 c -13.8165,-25.97471 14.3075,0.92726 0,0 z m -20.1508,-40.25715 c -5.1785,-7.06453 7.8829,-0.70647 0,0 z m -65.2374,-119.57608 c 1.5259,-7.83298 12.9792,-0.0758 0,0 z m -0.3247,-6.07497 c 0.4409,-7.26739 6.9712,4.85781 0,0 z m 81.7529,149.76162 c -0.898,-7.68608 8.4267,0.66587 0,0 z m -68.3427,-127.23256 c -2.2957,-6.41125 8.7802,0.14546 0,0 z m 41.0564,73.59746 c -0.9768,-8.95659 6.6613,5.38113 0,0 z m -99.7609,-187.40826 c -9.4248,-23.73327 6.0808,-39.2621 14.4648,-63.99931 18.9142,-5.55202 24.9688,34.44964 6.0007,10.06435 -4.7037,32.3494 0.3388,6.83966 6.0057,16.95436 15.8326,13.55725 -52.8497,14.61664 -15.1295,22.1453 -9.6146,13.35159 17.7504,-23.73455 7.0462,-0.28765 9.6626,8.93712 -11.8402,10.28306 -18.3879,15.12295 z m 17.498,-58.46928 c 4.4821,5.16652 -1.8076,-6.23199 0,0 z m -0.081,90.23128 c -1.3158,-7.19822 9.447,0.25896 0,0 z m 6.6503,10.87171 c -1.632,-7.82811 9.1928,0.75804 0,0 z m 15.0484,27.69367 c 1.1027,-28.45745 17.8839,-24.39991 4.9665,-1.42359 0.5841,2.54149 -4.6271,5.4689 -4.9665,1.42359 z m 51.1772,92.83306 c 3.2812,-24.80463 14.3879,-2.75268 0,0 z m 22.6807,41.73945 c 4.3839,-16.8025 8.1796,0.94848 0,0 z M 1127.175,341.65458 c -0.7699,-4.40636 3.2249,2.78734 0,0 z m 66.1801,121.79144 c -1.7955,-10.60989 6.1255,6.25237 0,0 z m 58.0104,102.27845 c -1.0283,-7.173 5.4286,2.65194 0,0 z m 3.3706,6.5318 c -1.1771,-11.27117 10.2172,5.09108 0,0 z m -33.8215,-64.25626 c -8.8925,-12.47906 8.3334,-0.81999 0,0 z M 1131.309,339.67709 c 0.7137,-6.64468 6.1621,3.02933 0,0 z m 37.5173,68.02305 c -6.1171,-10.94008 9.7854,1.39199 0,0 z m -20.1354,-38.77394 c 0.2764,-6.73268 5.227,3.14654 0,0 z m 79.6606,146.59949 c 2.2577,-9.76531 11.4762,7.73889 0,0 z m 9.79,14.93527 c 4.3223,-11.96133 17.3094,-0.98684 0,0 z m 16.5578,29.67329 c -3.1628,-5.28457 6.7095,-1.44677 0,0 z M 1134.259,335.52007 c 5.7985,-11.44866 16.8002,-1.62034 0,0 z m 68.4557,125.97922 c 8.4486,-12.67243 12.6003,4.71955 0,0 z m 25.7357,45.56333 c -3.8781,-0.7121 5.29,-2.35616 0,0 z m -83.2447,-152.7456 c 12.7138,-38.30963 19.8144,0.87211 0,0 z m 79.6656,146.60885 c 15.5876,-16.12591 10.4371,1.38261 0,0 z m 48.4599,88.91493 c -1.3189,-6.36241 5.7281,3.2951 0,0 z M 1170.7407,397.7783 c -0.4078,-11.17329 13.0795,11.75111 0.8644,1.60687 z m -17.5899,-37.05538 c 2.6143,-7.80922 7.0124,2.41276 0,0 z m 106.708,196.37502 c 3.8595,-6.63701 8.632,6.99704 0,0 z m -25.4148,-48.14028 c 0.9103,-5.35897 8.0326,-0.77522 0,0 z m -75.6996,-142.04937 c -0.1945,-11.75492 11.0476,5.01447 0,0 z m 59.8521,105.77374 c -2.2402,-7.66003 8.5412,4.62047 0,0 z m -36.1151,-69.09613 c -4.2207,-12.20253 20.3071,3.40207 3.0854,1.71349 z m -25.784,-48.66064 c 1.5828,-5.77674 4.4393,2.85954 0,0 z m 15.7782,29.03667 c 14.9763,-14.20181 14.933,3.97312 0,0 z m 38.0066,69.66505 c -4.5627,-12.88327 8.2996,2.61158 0,0 z m 6.1733,10.00168 c -1.7205,-7.35293 7.3919,3.31979 0,0 z m 46.3944,85.64549 c -1.6504,-7.19971 7.2009,1.17532 0,0 z m -86.0096,-159.65301 c 3.6416,-7.34535 6.9308,2.17286 0,0 z m 49.9835,89.46774 c -4.3707,-2.37681 9.043,-2.41754 0,0 z m -76.5287,-139.68854 c -0.7696,-4.40653 3.2246,2.7879 0,0 z m 82.3896,149.1112 c 5.2523,-23.40244 9.5278,4.87113 0,0 z m -90.1516,-166.13399 c 8.9849,-9.82047 14.3262,7.59479 0,0 z m 99.8109,182.31262 c 10.9919,-16.26 18.9722,19.71302 0,0 z m 15.0911,26.16306 c 3.879,-7.25732 11.1519,6.62209 0,0 z M 1152.7395,332.57645 c -0.1479,-6.16992 4.7299,1.60029 0,0 z m 21.9739,40.12636 c -2.612,-8.0424 7.5653,3.53256 0,0 z m 45.0611,79.773 c -0.5848,-7.15787 12.4243,-3.33321 0,0 z m -20.9915,-42.8322 c -2.3034,-5.92717 7.4579,0.70864 0,0 z m -2.6291,-5.38748 1.0019,-0.82607 z m 47.9411,88.22613 c -0.2426,-5.59505 4.5134,1.80254 0,0 z m -82.0175,-152.30652 c 0.3681,-4.33965 4.0117,1.69063 0,0 z m 9.2709,17.06151 c 4.662,-14.67742 26.5221,-8.65568 3.7671,-2.28067 z m 17.7082,31.21882 c 5.5682,-23.8521 19.0798,-7.8069 0,0 z m -25.6515,-54.3358 c -0.4069,-8.03537 11.4555,2.70589 0,0 z m 19.9914,36.78993 c 1.008,-12.72372 16.2188,1.47916 0,0 z m 58.766,106.99298 c -3.0838,-6.48641 8.8675,0.41764 0,0 z m -80.4796,-148.26716 c 0.056,-8.91475 7.3576,2.52323 0,0 z m 16.7145,30.75967 2.5283,-1.24804 z m 43.6009,77.13166 c -4.3809,-3.99219 7.9094,-0.54941 0,0 z m 18.6454,36.31231 c -0.2086,-3.32688 2.7704,1.77709 0,0 z m -68.5528,-127.52752 c -0.8829,-6.28775 6.656,2.19248 0,0 z m 27.8857,48.50314 c -1.3573,-14.64052 16.7104,2.58717 0,0 z m 29.6034,55.92475 c 2.5454,-6.08088 5.1057,4.28532 0,0 z m 10.7206,15.35696 c -2.3467,-7.69574 6.1445,3.38589 0,0 z M 1154.448,305.62721 c -0.337,-5.65717 4.3004,3.25158 0,0 z m 82.1292,150.88918 c 18.718,-18.3391 17.1481,1.77205 0,0 z m -64.1761,-121.9571 c -2.0295,-17.09012 14.3837,-1.05842 0,0 z m 75.0069,134.98941 2.2013,-1.36055 z m 17.0084,28.72297 c -6.9462,-17.6973 8.161,-35.28987 8.4497,-7.84537 10.4742,10.66447 -0.9561,12.29466 -8.4497,7.84537 z m 3.3635,-4.61975 c 3.2679,3.62878 -0.1722,-4.00127 0,0 z m 9.1771,26.47444 c 1.4264,-11.20512 8.7804,7.10426 0,0 z M 1132.6532,253.19499 c -1.3184,-8.6403 6.8661,2.31148 0,0 z m 122.0859,224.33327 c -0.3131,-4.83448 6.2191,2.43319 0,0 z m -49.9478,-93.33374 c 9.2314,-15.71193 40.4299,-26.0853 14.5037,-8.23259 0.8505,17.23791 -5.616,8.91592 -14.5037,8.23259 z m 41.7159,77.15768 c -0.9297,-10.85255 7.6981,6.04503 0,0 z m -8.878,-23.18522 c 5.2953,-7.88481 19.9409,2.80944 0,0 z m -23.2761,-44.20473 c 10.114,-17.95058 24.618,-2.06767 0,0 z m -50.862,-96.33975 c 7.033,-7.6014 13.0709,10.7522 0,0 z m -14.5287,-29.47625 c 9.2034,-5.04356 -18.3048,-19.7431 8.2901,-17.85918 9.7287,4.89127 26.2309,8.2714 17.6689,16.84461 35.9186,-6.80906 58.1302,40.74613 78.5516,65.68834 14.4456,20.06785 53.273,73.33123 6.5376,76.52339 9.1652,-17.74967 -13.2975,-25.78089 -10.0976,-39.63014 -39.6783,4.69607 33.7449,-19.92822 -7.0523,-8.56612 -21.7153,-1.8574 11.7591,-7.89679 -2.2507,-19.23851 13.9467,-22.64321 -35.9035,-19.74969 -3.2432,-8.97891 -12.9075,12.73986 -19.7947,-11.94308 -17.4829,-22.90147 -18.5751,-7.57164 -3.9407,38.00148 -16.4108,8.32573 -19.1646,-4.56261 26.2176,-39.92113 -12.1233,-35.57562 -10.8209,1.86986 -1.4753,-21.66692 -16.5865,-8.21839 -10.0336,-1.4504 1.7968,-21.65793 -16.5094,-6.77229 -2.9625,2.21123 -6.1455,-0.0363 -9.2915,0.35856 z m 4.8779,-7.45619 c 5.064,1.60813 -1.0524,-4.57619 0,0 z m 48.1215,52.86303 c 15.8671,-2.6832 0.5011,-15.9355 0,0 z m 6.9006,-13.54248 c 6.321,2.5829 -0.3544,-6.71175 0,0 z m 50.9215,86.90995 c 6.7111,5.70136 3.163,-9.31879 0,0 z m 8.3975,9.50099 c 10.9022,1.84247 0.44,-8.14546 0,0 z m -3.1916,-15.81786 c 23.5794,0.96965 -5.4143,-27.27425 1.3689,-0.88547 z m -41.7864,-77.16724 c 7.3444,2.46523 -3.398,-10.34473 0,0 z m -67.9497,-23.73312 c -8.8266,-13.50834 8.9479,0.40599 0,0 z m 42.1625,76.24324 c 0,-3.96489 3.0916,1.27199 0,0 z m -19.2825,-39.93615 c -0.021,-4.95698 6.3315,1.16225 0,0 z m 9.7254,18.23925 c 9.5511,-6.18609 10.0255,6.65144 0,0 z m -25.411,-48.13292 c -0.6503,-8.99252 6.9237,1.27896 0,0 z m 43.2114,70.88492 c 4.916,-20.39509 22.9034,3.00754 0,0 z m 7.2963,12.47841 c -1.3046,-10.4367 8.327,4.50436 0,0 z m -24.4105,-49.14242 c -4.6095,-17.60497 13.7306,8.18628 0,0 z m 16.5393,22.37418 c -9.1692,1.67737 10.5689,-7.58824 0,0 z m 10.3006,19.97428 c 5.8677,-12.75137 16.7279,4.97039 0,0 z m -41.7447,-77.88217 c 3.0714,-4.39292 4.9951,2.20153 0,0 z m 50.0585,92.12238 c 3.5986,-12.57885 6.0206,6.45535 0,0 z m -20.5405,-40.96277 c -8.6099,-13.52299 10.1218,3.84795 0,0 z m 42.8425,79.83764 4.3704,-2.21582 z m -66.643,-128.69234 c 0.8425,-7.75649 6.4474,6.98165 0,0 z m 8.7667,15.80888 c 5.1597,-10.68002 -4.1699,-18.30077 12.0044,-7.70954 -3.1876,3.22557 -6.9614,7.6188 -12.0044,7.70954 z m 22.9209,41.13475 c -1.3008,-8.7998 7.1957,3.84036 0,0 z m 28.1856,44.75009 c -1.3726,-9.8684 14.3124,10.47679 0,0 z m 7.275,8.18392 c 0.3742,-4.35148 4.0084,1.70145 0,0 z m 3.3442,3.41544 c 4.7993,-5.98666 9.1781,12.18552 0,0 z m -27.4513,-55.45859 c -0.025,-14.41078 28.6618,2.77577 3.9719,2.93423 z m 6.236,10.59596 c -0.6171,-4.53584 5.4442,1.4633 0,0 z m -9.7927,-19.0488 c -0.7696,-4.40618 3.2244,2.78818 0,0 z m -3.3081,-19.78172 c -0.7694,-4.40646 3.2247,2.7881 0,0 z m 134.7673,231.21933 c 7.4933,-19.09521 24.8667,-47.34801 3.636,-61.56151 15.0882,-21.35852 -5.6028,-26.34353 0.3979,-48.19704 -10.0308,-20.57963 -20.9169,-30.93999 -13.7245,-52.77999 -4.3096,-25.46456 -35.0374,-33.81562 -24.3533,-59.55283 -15.7737,-14.97238 -23.5203,-28.85007 -41.9237,-38.56862 9.4425,-28.46316 -41.3379,-25.41792 -48.0318,-52.62629 -20.3243,-13.46483 -37.7217,-27.88493 -61.1457,-31.14873 -12.6501,-42.55097 43.9933,5.23087 58.6902,12.95098 31.1628,16.51231 51.2921,48.31594 75.3889,74.23871 22.3891,27.11043 35.9251,61.68701 49.3347,93.57394 7.9177,35.74938 21.8364,70.22919 19.6796,108.03795 -4.3468,12.72513 8.1082,74.21157 -17.9483,55.63343 z m -175.7427,-352.1013 c 4.9609,-1.42384 -3.5396,-3.80937 0,0 z M 647.93705,543.14203 c 2.0026,-6.80123 8.30827,6.56131 0,0 z m 0,25.96528 c -9.81177,-26.18473 19.47997,-21.64415 10.37247,-1.48359 2.29148,12.55189 -7.97277,32.60187 9.76313,45.87312 -1.03758,35.03303 16.48179,65.49021 34.72749,89.27128 12.11946,18.12411 11.35515,41.55225 33.2936,42.94892 -18.00022,25.96568 41.38425,13.58618 19.41833,39.14135 17.81053,26.30129 -25.96931,-16.58486 -27.94307,-27.98297 -15.20861,-14.42153 -40.97376,-61.79438 -35.31801,-56.57928 -17.0617,-21.87232 -25.71469,-53.76856 -34.28068,-82.09277 -1.86589,-4.89924 -7.85106,-41.13567 -10.03326,-49.09606 z m 4.4442,-8.76172 c 2.48658,3.14873 1.69379,-4.56046 0,0 z m 58.1903,165.74486 c 1.94248,4.05289 1.20054,-5.46041 0,0 z m -3.8403,-157.4702 c -0.24108,-29.77185 9.77315,21.28292 16.7515,-2.42687 -25.93417,-15.63212 11.41538,-31.88122 29.09083,-21.19917 25.87119,-11.48373 61.49104,1.02105 73.8768,-4.89339 37.19869,1.77638 76.84441,-3.4063 115.10666,-2.14469 20.65708,-7.08037 38.30672,10.50965 11.16177,19.36717 -29.63446,4.90191 -43.56156,22.28622 -57.34053,40.03878 -7.15871,4.24895 -38.38642,31.91587 -65.15813,37.71482 -29.89422,7.54095 -51.81975,44.25706 -80.27289,43.05993 -18.86101,-23.89271 -46.0293,-61.44427 -40.50995,-101.38549 l -2.78786,-6.00459 0.0814,-2.11706 6e-5,-0.001 z m 7.8146,19.5992 c 6.87121,55.94932 21.17628,-41.98742 0,0 z m 11.446,45.30624 c 11.86778,6.01184 34.85823,33.74697 17.1362,3.85986 5.43299,-14.41084 -15.13874,-20.80102 -17.1362,-3.85986 z m 4.5187,-17.52081 c 6.0568,10.47068 6.61796,-13.23875 -0.0155,-0.61302 z m 0.3294,-42.75973 c 8.11227,7.69958 16.66555,-35.3025 0.47247,-11.55581 -0.1172,3.82662 3.03031,8.22202 -0.47247,11.55581 z m 1.9613,-21.18085 c 2.66053,6.58187 3.50984,-4.87989 0,0 z m 2.6569,37.74829 c -0.77245,16.99002 40.16687,12.1887 22.43436,6.92059 -31.02876,11.73948 27.70378,-29.32217 13.04878,-10.31042 -25.45792,-9.62607 13.92898,-19.05899 7.79249,4.9098 7.8437,15.70435 -5.15281,14.34731 -6.02993,2.20234 -15.63619,13.86508 8.05379,28.18261 12.16006,13.6037 15.09896,16.15878 3.67725,-14.46647 5.36089,-19.84296 -5.92999,5.25638 -4.50687,-27.30435 3.54615,-6.05644 17.61398,-13.48916 -14.3644,-13.00977 -12.63473,-26.49437 2.09069,30.00015 -33.04299,6.90206 -45.67807,35.06776 z m 7.1507,1.6312 c 5.99817,-18.0495 5.50786,12.56581 0,0 z m 8.1048,-10.04283 c 5.00551,-9.88602 5.84867,14.33415 0,0 z m -6.1435,-29.55562 c 7.2397,10.06229 4.14759,-9.56546 0,0 z m 1.3077,72.00736 c 17.5882,14.726 17.41151,-14.28267 0,0 z m 0,39.79726 c 4.66312,4.2576 2.56225,-4.90794 0,0 z m 1.9888,-48.27315 c 9.49594,4.88533 6.78674,-14.88495 0,0 z m 4.5495,-64.18532 c 7.59572,10.15486 4.80882,-9.29503 0,0 z m 0,105.06891 c 7.62283,23.77556 14.99901,4.12982 2.75609,-2.93205 z m 0.7715,-95.19025 c 4.37653,7.17888 3.17358,-7.66879 0,0 z m 1.8437,89.46472 c 2.39458,3.63603 2.71855,-3.39982 0,0 z m 2.2184,-42.11816 c 2.12315,10.01944 5.32938,-3.99014 0,0 z m 6.9353,20.0496 c 2.94104,7.03777 12.90715,-7.93367 23.16845,-5.01542 -9.95679,-3.54842 -20.42732,-10.70392 -23.16845,5.01542 z m 0.6537,-74.5871 c 5.3626,4.36951 4.38315,-7.78428 0,0 z m 1.3077,91.42506 c 1.40385,3.02304 1.58646,-2.88373 0,0 z m 7.1957,-0.64096 c 10.31373,16.41799 5.3992,-11.84911 0,0 z m 0.2277,-9.53421 c 7.14842,3.44663 2.41103,-15.25153 0,0 z m 9.5761,2.8825 c 2.64143,6.35662 10.21897,-6.0385 0,0 z m 1.7514,5.52047 c 3.66591,1.20603 -0.84551,-5.98814 0,0 z m 2.8253,-12.53939 c 8.20211,20.04302 6.26973,-17.41444 0,0 z m 10.4612,-21.12425 c 15.24507,1.56117 14.74651,-19.93845 0,0 z m 2.8153,-26.47671 c 2.58765,21.0475 26.31615,4.2622 -0.85126,-3.79451 z m 1.7615,57.9691 c 3.1304,5.58587 2.60193,-7.40851 0,0 z m 1.9615,-27.05764 c 2.05279,8.37168 8.59503,-6.50888 0,0 z m 10.8226,-41.5177 c 3.09951,2.04191 -0.18588,-3.66069 0,0 z m 3.7521,14.54727 c 19.57634,5.03177 23.9666,-28.42717 0,0 z m 2.5824,-28.33332 c 7.46967,5.53767 0.93147,-10.60337 0,0 z m 8.1973,60.64232 c 12.86057,2.87706 -0.001,-16.85143 0,0 z m 4.7216,-14.35148 c 12.13756,11.21461 22.86395,-20.678 0,0 z m 7.5666,20.34088 c 19.5263,1.23544 5.731,-14.02587 0,0 z m 9.0387,-48.17042 c 7.51105,0.23161 27.38294,-2.26834 30.9816,-7.18921 -9.87704,0.10907 -6.1268,-22.10974 -18.14702,-2.27324 -4.58238,2.4487 -11.09043,3.66071 -12.83458,9.46245 z m 10.8799,18.80677 c 30.72687,24.03953 -2.02871,-28.59784 0,3e-5 z m 7.8213,-15.69181 c 2.39572,3.63785 2.71758,-3.40122 0,0 z m 11.115,10.10789 c 4.12919,7.80644 11.69253,-2.55901 0,0 z m 2.0877,-9.22904 c 10.15217,14.13459 26.37197,5.76791 14.59782,-6.08715 -3.61043,5.11572 -12.58587,0.91639 -14.59782,6.08715 z m 22.38339,-26.70494 c 9.12376,6.55756 -0.76978,-11.33026 0,0 z m 15.41244,-9.75962 c 0.95272,9.13032 4.21768,-6.74289 0,0 z m 9.2816,-1.10848 c 5.74161,8.07786 2.78465,-8.6572 0,0 z M 760.58885,699.46469 c 16.24082,-21.58956 44.18211,-42.87511 70.39177,-49.89424 11.83424,2.60496 33.34295,-29.47056 48.38201,-17.64701 3.1761,-19.23707 44.0612,-41.71385 65.10605,-56.49376 24.94954,24.29401 -10.2036,-18.00747 21.91354,-17.42709 32.02295,-20.38074 25.37669,23.64221 7.7808,34.29263 1.5669,30.40121 -2.96355,61.32945 -16.73066,87.32579 -11.62942,18.8749 0.83477,40.65912 -20.46812,45.99069 -3.52584,15.81821 -38.35918,10.16252 -9.66685,19.49065 4.71635,10.55915 -39.37603,-7.23469 -13.27547,8.95936 -4.58934,5.40574 -20.32659,-3.88248 -11.81659,12.9881 -10.53447,17.31379 12.97888,-4.17034 12.03469,-4.99404 20.26468,-0.35143 15.30097,-16.52204 19.30466,-23.92795 18.80378,5.00351 -6.86186,38.5026 -8.70954,56.47356 -13.90294,38.47529 -53.79898,0.62771 -77.50908,-5.72422 -29.39941,-15.87026 -50.68998,-43.40366 -75.51636,-64.95041 -3.01235,-8.53918 -8.32541,-16.51512 -11.22085,-24.46206 z m 12.733,-7.7179 c 5.32827,6.58417 4.47983,-7.43422 0,0 z m 4.5768,18.65992 c 6.5964,5.70921 5.49504,-10.60955 0,0 z m 12.4743,-1.18503 c 17.17755,26.97528 19.3457,-2.65 0,0 z m 0.6023,-6.01518 c 2.10545,2.04787 1.5191,-3.71739 0,0 z m 2.7455,34.88512 c 20.72973,27.3916 11.3533,-18.20257 0,0 z m 0.6436,-52.41883 c 8.55229,10.37154 6.66284,-11.73653 0,0 z m 3.149,7.04149 c 12.16555,14.54215 11.024,-12.10284 0,0 z m 1.9615,-21.84659 c 11.01886,12.40705 15.3015,-17.42814 0,0 z m 10.4687,69.57727 c 11.32171,8.03674 8.01613,-30.36959 0,0 z m 4.5693,-20.4142 c 24.68539,8.30318 10.6483,-33.60197 0,0 z m 2.7201,-37.43888 c 16.34522,7.85736 41.7893,-27.43855 14.2991,-10.86931 -4.21333,3.76183 -14.72549,3.29613 -14.2991,10.86931 z m 1.8566,18.21979 c 12.07462,9.78655 7.67485,-14.39662 0,0 z m 7.3678,57.40147 c 5.34662,15.1934 31.1166,-4.60756 2.73864,-4.31886 0.0618,-1.58876 -4.71163,1.18764 -2.73864,4.31886 z m 2.4398,13.35962 c 4.34885,3.44929 2.81213,-6.95682 0,0 z m 2.6152,-54.37716 c 5.56212,7.90865 5.12902,-9.01608 0,0 z m 3.6228,-31.58062 c -0.32382,17.6362 26.86401,-7.49577 22.46004,17.32641 2.99032,-19.47949 26.56275,-23.13407 15.70659,-45.96404 -3.40868,-13.07852 -5.98923,14.81092 -9.43755,10.12474 -0.16247,14.91038 -21.73497,20.22483 -28.72908,18.51289 z m 0.9539,19.5144 c 4.03596,5.27284 3.38134,-3.93739 0,0 z m 0.7965,33.11916 c 2.65687,3.97645 1.52146,-3.28103 0,0 z m 0.8772,-14.96101 c 4.90611,8.70093 17.631,1.30718 18.7159,8.32236 10.39097,-13.18899 -19.70288,-2.93657 -13.45759,-18.39991 -3.44783,2.48374 -2.45523,7.20494 -5.25831,10.07755 z m 8.9118,49.39331 c 10.11778,10.32256 4.57005,-10.62244 0,0 z m 1.0302,-42.27085 c 5.65539,3.17754 0.29517,-4.46523 0,0 z m 1.3228,-67.77928 c 4.3169,33.54577 9.61912,-38.92446 -0.41061,-1.43838 z m -0.4742,79.71517 c 22.40548,17.85843 13.05817,-23.83678 0,0 z m 2.9774,13.76188 c 15.7033,26.07953 11.40296,-13.83156 0,0 z m 2.2117,27.54149 c 4.33228,6.08297 3.78602,-8.92259 0,0 z m 9.8074,-145.22975 c 4.6703,19.60925 17.38205,-9.80199 0,0 z m 2.6152,91.28849 c 11.03593,21.02177 20.12506,-12.52176 0,0 z m 1.3141,-27.18616 c 26.17238,20.24021 19.49143,-4.56047 0,0 z m 0,16.48183 c 2.51991,8.12428 8.1319,-4.29819 0,0 z m 6.7073,74.22875 c 12.16474,-0.66194 -5.85031,-16.10539 0,0 z m -0.1692,-68.22586 c 12.71624,7.51235 10.23225,-14.80973 0,0 z m 0,24.58305 c 2.1064,4.5348 2.37917,-4.32641 0,0 z m 3.9231,-83.73134 c 2.91931,8.39432 3.70823,-6.50105 0,0 z m 0.6537,98.17447 c 4.38953,10.47372 3.37727,-9.58243 0,0 z m 1.1002,-15.67549 c 16.26928,-3.34586 1.7105,-25.97018 0,0 z m 2.169,-53.33857 c 9.53788,28.9392 4.42671,-24.18581 23.886,-1.28277 6.74063,-5.10402 -6.93544,-16.63246 0.65276,-18.19965 -10.92021,7.00926 -19.03143,-27.55365 -18.67126,-0.11433 12.03778,-1.77838 -3.34703,18.10108 -5.8675,19.59675 z m 2.6152,103.71305 c 11.2967,16.0701 17.88859,-14.63862 0,0 z m 4.5768,-80.15107 c 13.41539,-0.24951 23.75239,0.63478 31.61651,9.6192 19.19714,-31.44303 -32.99829,1.01878 -26.72243,-23.67332 -6.35692,1.43233 1.69674,12.04472 -4.89408,14.05412 z m 0,24.09961 c 10.4287,16.39465 21.46672,-12.65686 0,0 z m 4.3183,41.71107 c 5.77932,10.78728 3.61801,-9.92685 0,0 z m 1.6862,-145.78872 c 12.08774,9.8287 15.41828,23.10422 16.31612,2.2548 16.16312,-6.50531 24.02887,-32.47288 0.91518,-14.0487 -20.40406,-4.63375 -5.34738,9.6135 -17.2313,11.7939 z m 10.99499,-8.39814 c 6.36872,-9.37642 8.87158,11.18374 0,0 z m -6.6521,98.93709 c 4.57094,2.30238 -0.66265,-4.06355 0,0 z m 2.7292,-23.68526 c 2.39572,3.63785 2.71758,-3.40122 0,0 z m 1.4773,-5.39396 c 11.26141,26.00765 15.51793,1.96717 0,0 z m 0.2729,-85.74889 c 21.93031,10.42475 19.78034,-25.57625 0,0 z m 5.4419,161.63765 c 6.32821,10.79421 24.84901,-6.09718 5.57525,-1.6334 z m 1.9614,-79.41988 c 8.79479,20.35844 11.50973,-8.59635 0,0 z m 6.04484,-22.49398 c 11.16287,4.97935 42.38135,-8.18324 10.83608,-4.43991 14.4105,-20.48952 -9.71625,-8.05647 -10.83608,4.43991 z m 2.455,-72.18019 c 20.4681,10.37886 23.27865,-28.59424 0,0 z m 5.8845,43.43312 c 5.23735,9.74949 11.38433,-11.82755 0,-1.90113 z m 0.052,45.87307 c 5.80249,12.63959 5.71663,-10.50051 0,0 z m 1.9245,-56.11814 c 6.01775,16.07006 4.79703,-7.42336 0,0 z m 2.2063,95.1425 c 6.25492,2.39952 -1.41787,-6.73372 0,0 z m 1.0998,-20.39808 c 5.2778,7.91072 3.12823,-9.03727 0,0 z m -0.052,14.62764 c 1.40363,3.02289 1.58617,-2.88358 0,0 z m 0.6536,-5.51885 c 2.10563,2.04794 1.51942,-3.71731 0,0 z m 3.2693,-27.7826 c 9.6412,18.13547 28.68051,-14.30258 0,0 z m 1.32744,-40.49744 c 14.21796,14.80311 6.40947,-14.44184 0,0 z m 0.6339,54.94701 c 5.86833,4.48986 2.54088,-5.71809 0,0 z m 2.6154,-101.06422 c 14.54414,12.98992 10.17992,-9.93568 0,0 z m 0,74.05552 c 4.47601,10.81172 8.62624,-5.7728 0,0 z m 2.1294,-82.45265 c 14.91285,4.3314 0.89551,-7.11172 0,0 z m -0.699,26.14355 c 6.17064,7.19165 2.6695,-7.28819 0,0 z m 4.4541,14.62663 c 7.67078,13.77623 16.89112,-22.27494 0,0 z m 5.231,-22.25005 c 25.64066,28.86886 5.77347,-31.6903 0,0 z m 2.4029,63.10846 c 3.56928,3.91697 -0.19847,-4.99965 0,0 z m 1.53994,-34.92742 c 16.40999,15.80812 8.64935,-29.71639 0,0 z m 6.2156,-54.05668 c 12.38544,0.68828 -3.13348,-13.18138 0,0 z m 4.2295,-17.40177 c 11.87394,10.06024 13.39392,-12.98015 0,0 z m 7.5948,-14.02919 c 6.01445,15.47197 5.55838,-10.22407 0,0 z M 765.48225,797.89799 c 24.25443,-22.69287 32.95158,50.51326 60.84142,30.54046 8.78316,25.19925 27.83804,6.49458 41.70525,25.6967 19.59042,2.95884 34.99703,-3.00238 45.27134,14.95353 25.61035,16.14958 53.88396,-11.54779 67.78325,13.88398 20.84149,-4.12427 39.18029,-5.02877 56.47119,-14.35855 18.0223,22.9885 44.6201,-21.20616 70.0259,-10.01329 21.0183,-10.9512 45.1481,-13.74756 55.952,-34.26376 49.3815,10.43588 -14.6792,30.83475 -30.7624,40.38207 -33.2673,18.08538 -70.7936,21.55712 -107.6837,24.57531 -37.51176,6.0138 -74.58225,-5.01 -111.32009,-10.72129 C 879.8842,864.58591 842.61854,859.29457 812.88614,835.76732 795.8427,824.91285 778.48913,813.11271 765.48225,797.89799 Z m 122.9193,63.82254 c 2.7625,3.50514 3.90108,-3.55055 0,0 z m -55.567,-215.85285 c 4.62059,-6.14523 4.27139,5.58047 0,0 z m 77.52079,-60.64112 c 0.88656,-6.15333 5.55069,3.57534 0,0 z m 6.81954,-5.95857 c 2.39536,-3.63742 2.71738,3.4009 0,0 z m 18.84684,231.45421 c -3.16687,-22.48281 38.29152,-24.56816 14.65842,-39.05225 -12.86522,-14.79085 23.60546,2.48123 -1.52418,-14.69341 -2.66785,-19.15828 32.81562,-9.97771 18.92074,-28.15743 -28.37746,-4.09169 14.49031,-63.51192 2.55626,-18.53951 8.29037,8.32495 19.45608,-29.84144 -2.28372,-23.71504 0.23707,-22.47473 18.55596,-36.54197 13.77534,-59.14457 15.0963,-0.46836 -11.94605,-26.88842 7.06183,-35.73418 0.14474,-29.93167 38.71799,-34.19466 45.25729,-0.96195 14.9787,27.2246 37.501,59.30177 52.7505,84.93773 12.2309,27.80643 37.1515,57.69942 53.4852,88.51728 12.5039,20.83306 3.4856,3.50974 -4.6738,8.66369 3.6582,37.65709 -59.0655,50.47293 -91.6919,54.31878 -32.2989,-2.66659 -72.44442,9.09788 -99.62798,-9.22405 -3.40077,-1.32872 -10.25097,-1.6579 -8.664,-7.21509 z m 21.04874,-25.24555 c 0.87186,9.29102 11.2701,31.70328 21.02439,10.62604 -26.20041,6.0257 -5.54996,-2.47039 -4.14199,-18.35574 -5.24602,4.31221 -10.49119,7.02062 -16.8824,7.7297 z m 5.4224,-16.83757 c 8.80799,13.88337 14.17289,-15.56798 0,0 z m 0.761,11.08686 c 12.56674,3.20296 -0.43247,-6.55032 0,0 z m 8.667,-37.69874 c -3.30419,2.6537 28.67524,0.99704 6.34798,9.73228 -10.26274,16.97219 49.40776,-24.05377 34.85236,-3.80569 -10.8359,17.37426 26.6648,-3.63766 2.1676,-6.53831 -6.8662,-4.84749 -22.70978,-20.83625 -21.86476,0.97525 -5.69009,1.30555 -11.12528,-20.94002 -21.50318,-0.36353 z m 28.30214,0.0423 c 2.764,-3.50502 3.9001,3.55085 0,0 z m -20.87754,-14.32186 c 10.03223,14.45915 7.81145,-18.07076 0,0 z m 3.5509,72.34898 c 0.77855,36.23944 15.99209,10.93193 8.87588,-6.96405 -3.46098,1.13191 -7.74983,3.12315 -8.87588,6.96405 z m 0.3372,-24.17051 c -0.34929,23.67383 40.53944,15.87473 0,0 z m 4.3612,-96.63975 c 16.91054,6.36921 9.31442,-25.27598 0,0 z m 0.1269,15.23597 c 10.15439,3.5881 2.13215,-12.09205 0,0 z m 2.0627,-36.35599 c 12.49624,16.73459 10.92334,-24.05287 0,0 z m 2.7379,53.76722 c 6.86033,6.50849 2.80272,-9.43855 0,0 z m 0.5094,88.45736 c 15.06124,0.30987 9.63504,-14.82234 0,0 z m 0.6538,-37.21248 c 26.22934,2.7442 3.79684,-26.88709 0,0 z m 0.804,-117.88808 c 6.86684,6.37971 4.61878,-8.21817 0,0 z m 3.1191,35.44269 c 19.44604,7.85286 8.26524,-10.71967 0,0 z m 4.95994,-12.45458 c 7.4323,4.19099 3.4689,-5.97397 0,0 z m 0.9244,-12.47634 c 4.9448,13.13279 8.8275,-5.81058 0,0 z m 0.3728,49.07343 c 4.4361,25.34637 21.5363,-12.84662 0,0 z m -0.2548,96.85569 c 5.0431,7.4003 3.2729,-6.19666 0,0 z m 0.5735,-152.83182 c 9.8236,10.38315 13.2693,-13.54297 0,0 z m 1.346,41.38697 c 6.3707,17.64755 5.3419,-14.48617 0,0 z m 1.2317,81.72426 c 9.5046,23.73235 14.0954,-1.49379 5.9523,-12.21835 -3.2664,3.50828 -2.3042,9.19834 -5.9523,12.21835 z m 3.9229,-96.63129 c 3.8425,5.91511 3.8743,-5.76159 0,0 z m 3.1329,-96.27576 c 10.3527,5.00504 0.4939,-10.77299 0,0 z m -0.5174,227.04909 c 6.2125,5.80956 4.36,-8.11209 0,0 z m 2.2882,-125.54273 c 8.1055,3.90341 -2.3807,-2.69097 0,0 z m -0.9807,107.3457 c 10.7857,9.40821 6.6797,-8.47291 0,0 z m 1.9615,-186.2491 c 14.3926,13.07094 12.4352,-32.17869 3.1377,-2.21187 l -3.123,1.50882 -0.013,0.0162 z m 0,83.73678 c 2.5833,6.54038 3.6243,-6.33861 0,0 z m 2.6154,-4.72198 c 6.7227,3.59065 4.3109,-5.47673 0,0 z m 1.9614,-25.68005 c -3.9396,24.97473 56.9846,43.99356 21.9158,18.10867 -14.4766,0.0373 -8.4147,-30.97598 -21.9158,-18.10867 z m 1.079,62.342 c 5.8338,1.32579 -1.1603,-7.66099 0,0 z m 2.8439,15.64166 c 11.7178,11.77981 35.5544,-16.36636 10.6421,-5.23694 -3.3058,-0.91778 -12.0717,-0.05 -10.6421,5.23694 z m 1.3508,8.76957 c 14.4553,6.14218 2.0502,-8.22693 0,0 z m 1.9184,39.16939 c 10.5154,18.67556 14.8608,-5.88743 0,0 z m 1.3077,-87.84077 c 9.0048,20.06838 11.6244,-8.89387 0,0 z m 1.3599,113.83868 c 12.018,-3.98289 -3.6828,-29.85752 0,0 z m 0.7392,-57.78802 c 11.6458,12.86856 9.2182,-9.34551 0,0 z m -0.1369,12.51059 c 1.4042,3.02315 1.586,-2.88424 0,0 z m 3.9229,-3.2898 c 8.7815,8.45079 4.5413,-8.72744 0,0 z m 0.6538,51.78169 c 4.2476,6.21275 1.7527,-6.19249 0,0 z m 0.8579,-67.82057 c 4.9304,5.37296 1.4451,-6.44328 0,0 z m 2.5884,-116.92604 1.6255,-0.25562 z m 1.1305,166.03332 c 16.4752,16.40239 36.531,-18.88949 15.5765,-11.69736 13.8876,16.72888 -14.8207,1.15805 -15.5765,11.69736 z m 0.066,13.78404 c 21.1868,10.78822 19.9865,-11.45908 1.3739,-4.96987 -0.4153,1.59674 -1.6276,3.19375 -1.3739,4.96987 z m 1.8944,-40.57701 c 12.2228,27.90801 12.7341,-17.01477 0,0 z m 1.3077,-75.27197 c 0.7078,3.67666 1.3806,-3.27071 0,0 z m 0.6638,58.9662 c 13.9464,7.65227 1.6691,-25.98195 1.0041,-4.80975 z m 6.0222,2.8269 c 9.0198,8.97107 5.4836,-7.35665 0,0 z m 5.8844,-32.52433 c 7.254,8.32598 6.1738,-3.4143 0,0 z m 0.506,16.22742 c 20.0548,19.57104 13.0831,-13.62487 0,0 z m 4.771,-9.56845 c 5.8673,7.64003 4.4546,-9.41772 0,0 z m 0.4596,67.08836 c 2.7634,3.50549 3.9008,-3.55109 0,0 z m 3.9747,-105.08199 c 6.1397,5.97457 2.0847,-7.95012 0,0 z m 3.8718,111.54012 c 9.6243,25.57196 10.6136,-34.69802 0,0 z m 13.0765,-49.94019 c 5.5384,10.87064 6.3783,-8.20003 0,0 z m 8.2293,-2.84846 c 6.3324,4.27174 1.0929,-5.65414 0,0 z m 0.2705,-31.7468 c 13.3071,13.18146 16.1366,-11.409 0,0 z m 3.9231,61.73166 c 1.4042,3.0232 1.5861,-2.88428 0,0 z m 18.9609,23.64659 c 5.8677,4.48965 2.5412,-5.7175 0,0 z M 940.11622,787.67387 c 5.02955,-14.05697 11.29366,6.09669 0,0 z m 1.5988,-58.72267 c 1.68263,-13.2859 3.67541,9.75392 0,0 z m 12.74124,33.38707 c 1.40426,-3.0232 1.58606,2.88428 0,0 z m 2.616,-24.01602 c 5.61332,-6.38536 3.59692,8.51387 0,0 z m 14.3857,-200.2668 c 3.47207,-5.61013 6.56662,5.61304 0,0 z m 235.37744,354.02843 c 1.5279,-5.82852 1.1578,6.32761 0,0 z m 0.6538,9.80736 c 1.2668,-3.78075 0.8584,3.64734 0,0 z" 
    />
    <path
       id="lemonade_berlin"
       style="fill:#280b0b;stroke-width:1"
       d="m 1145.8533,436.05527 c -5.8182,17.01524 -30.4169,17.67945 -43.4813,28.71932 -6.1573,3.74858 -18.3023,8.28164 -7.3522,15.2105 13.3498,12.29512 32.7215,5.62546 44.6077,-5.43494 10.1293,-3.36449 13.4549,24.13927 13.6703,17.34117 -17.7675,18.8389 -51.2869,27.85247 -73.0457,9.76154 -18.4404,-12.81486 -29.7062,-39.65208 -18.1251,-60.40719 11.716,-28.95746 54.5223,-40.29286 77.2921,-17.8039 2.7469,3.85991 5.4311,7.89985 6.4342,12.6135 z m -29.7294,8.14536 c -7.5115,-16.09463 -33.9196,-8.9638 -32.3114,8.71909 -0.8835,9.80338 3.0474,12.20851 10.1727,5.31159 5.6135,-5.89932 18.4795,-8.07911 22.1387,-14.03068 z m -13.5856,-3.79081 c -0.7288,-0.29933 0.6024,-0.35727 0,0 z m 16.873,18.36161 c -0.6965,-0.0724 0.5368,-0.57688 0,0 z m -19.4897,16.46874 c -0.7442,-1.01144 1.0889,-0.27751 0,0 z M 968.51567,617.67165 c -5.1474,17.23004 -29.70128,18.85706 -42.3233,30.40007 -6.00579,3.98684 -17.96389,8.99201 -6.75093,15.48675 13.82106,11.76291 32.91667,4.33974 44.3607,-7.17766 9.98977,-3.75858 14.38988,23.59385 14.33895,16.79252 -17.01617,19.52026 -50.15688,29.83956 -72.60748,12.61461 -18.92804,-12.0829 -31.23617,-38.45835 -20.47681,-59.65104 10.57305,-29.39408 52.90261,-42.39713 76.53559,-20.8171 2.89593,3.74939 5.73628,7.68112 6.92328,12.35185 z m -29.38764,9.30336 c -8.136,-15.78814 -34.24467,-7.6286 -31.94515,9.97774 -0.49892,9.83046 3.5231,12.07981 10.3729,4.90913 5.37818,-6.11462 18.14897,-8.79658 21.57225,-14.88687 z m -13.7236,-3.25589 c -0.74002,-0.27055 0.58788,-0.38057 0,0 z m 17.57913,17.68676 c -0.69886,-0.0451 0.51371,-0.59744 0,0 z m -18.82988,17.21935 c -0.78327,-0.98151 1.0773,-0.31995 0,0 z m 378.11222,-43.22464 c -0.6524,-0.46463 0.6523,-0.46463 0,0 z m -4.6813,-15.74784 c -3.2483,21.07395 -3.3378,42.4864 -5.5005,63.48474 5.3817,17.12967 -37.2706,17.22045 -26.9166,15.68909 -12.4835,-8.60536 -6.6432,-53.13392 -2.7673,-40.2395 -5.3536,-13.30619 11.6254,-39.74692 -3.052,-45.95723 -10.1177,10.73289 -18.6379,23.5602 -28.6642,33.71343 1.2959,17.22887 -0.872,35.28449 3.5682,51.80796 -5.7429,7.48491 -17.5688,8.64029 -26.0121,6.43685 -13.4647,-16.64678 -2.4511,-39.01498 -8.5794,-39.74783 0.9207,-20.35082 -4.1565,-40.71549 -8.3263,-60.1199 12.0157,-9.33943 38.1483,-5.24554 35.0305,-5.41338 4.3776,5.98095 -3.7677,39.47132 7.4864,23.82697 11.4766,-13.2717 23.2727,-32.09203 43.5914,-28.78198 17.8881,-5.29962 21.4942,12.84895 20.1419,25.30078 z m -37.6909,70.48615 c -0.6524,-0.46463 0.6524,-0.46463 0,0 z m -1.4701,14.00283 c -0.5103,-1.14741 1.1231,-0.0378 0,0 z m -26.6097,3.15086 c -1.5339,-0.26365 0.7905,-0.60075 0,0 z m -29.139,-6.18674 c -1.1737,0.0598 0.2894,-0.97887 0,0 z m -5.6121,-57.52179 c -0.9582,-0.45088 0.9582,-0.45088 0,0 z m -3.9535,-9.30372 c -1.6114,0.55298 0.074,-1.44298 0,0 z m -16.3135,62.25959 c -2.775,9.48781 -15.2172,9.40701 -23.1796,9.23842 -8.6892,-24.47747 -15.8746,-77.04038 -16.4811,-90.33337 -2.7227,-9.59665 2.5892,-27.58816 15.2225,-16.5973 5.1628,4.45446 19.7555,-0.49793 19.4274,10.18395 4.2511,36.8071 1.4368,56.67194 5.0109,87.5083 z m -1.3129,-122.52904 c -6.6243,15.05653 -38.03,2.62821 -27.7937,-12.18429 6.7645,-10.7381 19.3093,-5.95565 23.2775,3.45808 0.8245,2.83381 5.1131,5.50579 4.5162,8.72621 z m -55.193,-14.6006 c -7.0249,86.48121 3.2661,135.57206 -5.5917,145.67695 -7.7599,3.21887 -26.0745,6.20965 -24.4884,-7.59993 -4.9144,-44.71875 -4.3802,-89.99857 -5.9068,-135.01045 -0.5137,-12.90828 34.4266,-15.7089 26.2424,-11.57959 5.4672,-0.38255 9.6115,3.18521 9.7445,8.51302 z m -17.8536,-11.07304 c -1.4466,1.95164 0.5649,-3.05623 0,0 z m -0.5627,1.19298 c -1.0695,-1.03813 1.1796,0.4522 0,0 z m -13.6508,0.58043 c -0.6478,-0.44851 0.6648,-0.21994 0,0 z m -15.8387,73.10565 c -3.3232,15.52902 -21.1162,-1.51443 -18.791,-0.0494 -11.5306,14.31446 -20.0708,30.74808 -33.2709,43.77808 -1.4871,14.26441 7.5108,29.21653 2.4328,42.64926 -8.7834,8.95295 -24.26214,6.415 -31.09724,-2.80473 -3.4268,-22.83711 -7.2396,-46.04572 -10.3507,-69.28955 -2.1912,-9.55631 -4.7141,-19.50788 -6.3803,-28.50932 5.6036,-7.21629 16.5702,-2.47118 23.2774,-8.76887 8.65874,-4.16671 13.84934,3.48029 13.08334,11.58135 0.8802,19.97456 3.5643,20.02642 14.2059,4.74432 8.2402,-10.48023 19.2651,-28.36811 34.4947,-22.50653 9.4993,6.19699 9.7776,19.14932 12.396,29.17549 z m -79.45334,0.81835 c -0.6649,0.21993 0.6478,0.44851 0,0 z m -0.247,-3.235 c -1.9829,-3.18571 1.5103,8.07568 0,0 z m 60.44184,-91.42184 c 1.2277,13.5316 -16.5459,15.00738 -25.6423,14.35203 -11.4628,-7.21038 -10.3338,-25.79068 -13.1477,-35.29964 -10.6538,7.68506 -16.12354,20.77978 -28.25204,26.76835 -7.6038,14.74666 -31.1434,8.24715 -31.8749,-8.10163 -9.87364,-24.91025 -7.08284,-55.99073 10.9342,-76.65916 7.7548,-16.30216 29.9425,-14.43307 45.64044,-14.03417 0.6648,-25.46236 -1.2366,-52.3282 3.8602,-77.07134 7.3618,-2.15969 30.6328,-9.06804 28.6092,5.87741 -6.0038,28.48005 0.6711,58.13386 -0.5933,87.03903 2.0441,24.41392 3.6125,48.89809 10.2884,72.51552 l 0.1786,4.61354 z m -39.6516,-38.18813 c -2.0174,-14.04596 -9.3039,-54.56567 -5.0046,-43.30909 -13.88144,-0.7958 -23.06504,13.52563 -20.80124,26.41752 -0.023,5.27571 0.3098,18.86771 0.6369,11.28567 -0.6824,9.39231 -0.4326,22.54515 2.9977,27.62673 7.289,-7.09385 14.20074,-15.3366 22.17124,-22.02083 z m -16.99714,-12.72985 c -1.575,-0.42984 1.5751,-0.42984 0,0 z m -6.274,32.09739 c -0.6519,-0.69909 0.6736,-0.46614 0,0 z m -1.091,-3.09153 c -0.717,0.22582 0.6923,0.65257 0,0 z m -0.9094,-3.36433 c -0.6011,-0.13271 0.4278,1.1623 0,0 z m -0.4468,-1.78046 c -0.028,1.88111 0.6798,2.13139 0,0 z m -0.8262,-29.86228 c -0.6643,0.70982 0.6643,0.70982 0,0 z m 61.28524,236.04761 c -0.6525,-0.46462 0.6523,-0.46462 0,0 z m -3.0114,-297.51456 c -0.6595,-0.56485 0.9158,-0.34508 0,0 z m -1.6152,3.81896 c -0.9158,-0.34509 0.6595,-0.56485 0,0 z m -7.8117,238.57802 c -2.2593,0.52204 0.5391,-1.32897 0,0 z m -4.3974,-50.96416 c -1.6605,0.26582 0.782,-1.47761 0,0 z m -0.2587,1.24242 c -0.6735,-0.46614 0.652,-0.6991 0,0 z M 1029.12,324.88744 c -0.665,-0.21993 0.6477,-0.4485 0,0 z m -7.1266,208.45492 c -0.7454,-1.17249 0.7852,-0.2378 0,0 z m -13.5291,-173.46221 c -0.4844,-0.26248 0.784,-0.0811 0,0 z m -2.8195,30.66668 c -0.9285,0.33639 0.012,-0.805 0,0 z m -19.62454,139.29104 c -0.6525,-0.46462 0.6524,-0.46462 0,0 z m -7.6203,53.65628 c -0.3784,1.75533 -0.5837,-1.16052 0,0 z m -4.564,9.902 c -0.8479,-0.35123 0.8479,-0.35123 0,0 z m -23.47514,-60.09328 c -0.9285,0.33638 0.012,-0.805 0,0 z m -16.46014,-8.32965 c -10.3388,11.48669 -27.91644,0.11963 -40.5356,6.89407 -13.15631,3.27613 -30.56683,11.11574 -41.16876,-2.6564 -11.8799,-17.18567 -0.35863,-38.92977 13.70262,-50.81715 6.6737,-8.16511 17.29167,-13.59559 24.20525,-19.3744 -1.72145,-9.96019 -0.50587,-28.93553 -15.07399,-20.12909 -6.54128,5.74129 -28.71819,16.13684 -23.67507,0.35322 11.89344,-8.41757 23.7682,-18.35109 39.36013,-16.85699 12.81138,-5.24189 29.54542,1.02557 27.81192,17.06966 4.7036,27.26735 6.5394,55.50289 15.4528,81.74376 l -0.079,3.77349 z m -36.21044,-7.95615 c 0.8773,-15.52325 -8.43011,-35.63707 -8.04448,-41.4629 -3.75227,5.02407 -19.09396,17.39788 -13.79641,13.28531 -9.62098,15.23525 4.44159,38.7722 22.23679,29.48788 l -0.3959,-1.31036 z m -22.77391,125.32069 c -3.15437,21.59961 -13.98582,43.13965 -35.32742,51.40757 -8.40877,3.70406 -17.33334,8.54141 -25.71742,10.57559 -6.2174,-2.74413 -31.52165,5.80908 -25.6624,-4.33215 -15.54524,-1.90138 -14.84751,-35.70736 -13.17356,-29.70876 -5.86564,-30.44853 -6.9824,-61.9497 -18.31537,-91.03724 4.90701,-7.58207 16.31243,-2.99188 22.08729,-10.56421 21.91312,-5.21531 10.75596,23.74155 14.40453,27.60753 3.08704,10.59252 5.80213,26.02089 7.54577,33.82048 12.45433,-21.16432 38.76558,-34.44248 62.92178,-25.00717 12.97081,7.3021 11.56832,24.72129 11.2368,37.23836 z m -31.71446,-8.81405 c -0.79464,-9.58213 -12.35931,-21.28085 -19.39312,-9.96635 -10.88757,8.23709 -21.92544,22.01441 -18.06662,36.37792 1.58714,9.9782 2.47012,23.14593 8.19983,30.53463 8.6332,-6.88454 19.1526,-11.79351 22.38853,-23.4637 6.21319,-9.57485 5.69111,-22.52929 6.87138,-33.4825 z m -8.99713,-1.17431 c -0.70812,-0.61415 0.7081,-0.61415 0,0 z m -3.62344,17.22015 c -1.60948,-0.12066 0.52819,-1.12721 0,0 z m -18.60253,32.36447 c -1.15848,0.49589 0.25476,-0.70557 0,0 z m 56.61019,17.19097 c -0.65245,-0.46461 0.6524,-0.46461 0,0 z m -3.25987,-240.60453 c -1.48378,0.40577 0.12449,-1.14154 0,0 z m -6.93429,-43.45574 c -1.20104,0.31259 0.69141,-1.5554 0,0 z m -2.25312,125.91555 c -0.70199,-1.07494 0.74585,-0.15356 0,0 z m -16.64954,52.8508 c -0.6524,-0.46461 0.65245,-0.46461 0,0 z m -9.44388,2.62914 c -0.70199,0.20434 0.11429,-0.7051 0,0 z m -7.84595,-13.39343 c -0.64359,-0.13819 0.49726,-1.03674 0,0 z m 6.4275,-57.934 c -1.29989,14.62807 -20.48832,9.42414 -29.65873,15.68897 -11.59375,-5.65467 -2.73379,-23.7184 -7.26456,-33.80947 -1.09585,-16.20438 -2.34527,-37.1302 -5.90678,-49.95475 -5.23433,20.18545 -25.57156,38.56866 -15.27746,60.66926 2.72082,7.67501 8.95178,20.97327 -4.13812,22.54375 -12.98501,3.05911 -28.8751,-1.70759 -28.6831,-17.46273 -2.19444,-19.70618 -6.60028,-38.73135 -12.90447,-57.455 -4.48077,-8.37855 -4.26297,-22.62977 9.07599,-16.53127 7.69772,-6.96138 20.91655,-5.37301 21.65284,6.30415 2.58408,10.21369 6.03222,31.24927 12.08717,11.46554 3.68872,-10.55529 7.75991,-26.21999 21.8529,-25.73182 9.04729,-6.60335 27.93999,-11.69503 30.52564,3.94617 2.01835,21.02386 1.36411,42.31038 7.14912,62.81518 -1.8347,6.18479 2.36971,11.44112 1.48956,17.51202 z M 761.97494,477.5546 c -0.65199,0.69909 0.67357,0.46613 0,0 z m 64.25538,64.25538 c -1.08837,0.24474 0.24473,-1.08836 0,0 z m -15.88199,3.9402 c -0.65241,-0.46463 0.6524,-0.46463 0,0 z M 764.29519,666.2093 c -0.9582,-0.45087 0.95818,-0.45087 0,0 z m 9.31846,-169.01437 c -0.6524,-0.46463 0.6524,-0.46463 0,0 z m -15.42645,92.55419 c -0.9285,0.33637 0.0116,-0.80499 0,0 z m -4.24261,9.71946 c -1.08454,-0.47033 0.87343,-0.35511 0,0 z m 1.84728,-147.73736 c -0.67357,-0.46613 0.65199,-0.69908 0,0 z M 741.2136,670.43014 c -0.82156,10.37285 -12.06712,28.67308 -22.70618,18.25377 -8.67729,-13.80984 5.08218,-37.91429 21.47623,-30.08862 2.97145,3.05489 0.30589,8.2713 1.22995,11.83485 z m -15.51,-229.86117 c -1.94391,-0.0685 0.87371,-1.44079 0,0 z m -4.10044,59.99028 c -0.66489,-0.21993 0.64783,-0.44851 0,0 z m -9.09577,-4.606 c 0.53902,19.26591 -1.56696,42.8463 -21.58364,52.03041 -15.1586,9.65183 -34.76966,4.46768 -48.82666,-4.70849 -13.37888,-15.44225 -16.71196,-36.53577 -11.5268,-56.19776 2.87227,-14.88103 13.20192,-27.10407 27.02003,-32.36978 18.50717,-11.47639 43.89192,-0.14365 51.09009,19.48268 3.57687,6.4182 2.23911,14.68928 3.82698,21.76294 z m -31.18079,-1.30428 c 1.04092,-9.63577 -19.14048,-29.31487 -11.93037,-24.9434 -19.75026,3.22714 -6.29825,60.01526 -6.53508,46.1295 1.2927,16.92082 16.51162,23.06466 17.09725,2.21006 0.59201,-7.75802 2.1488,-15.58993 1.3682,-23.39616 z m -13.19173,33.36853 c -0.53564,-0.56182 0.64917,-0.14234 0,0 z m -2.00818,-24.82135 c -0.98308,-0.56221 1.23426,-0.32316 0,0 z m 46.34963,-30.41145 c -0.702,-1.07495 0.7459,-0.15356 0,0 z m -1.88611,-18.50752 c -0.65952,-0.56486 0.91571,-0.34509 0,0 z M 656.32799,557.7526 c -1.5418,-0.9221 1.31273,-0.14797 0,0 z m -27.65267,-82.74397 c -1.26412,-0.43898 1.26413,-0.43898 0,0 z m -5.9728,75.17942 c -0.86061,0.17531 0.36338,-0.77669 0,0 z m -0.30118,-20.62295 c -0.9786,-0.69695 0.97859,-0.69695 0,0 z m -4.17754,25.27782 c -5.81306,7.21254 -18.01287,10.77375 -26.39092,7.55118 -8.81687,-3.755 -7.61832,-36.87065 -8.52926,-26.28546 -2.95384,-17.73522 -4.72285,-35.69201 -9.18471,-53.15677 -8.78758,4.19017 -13.31482,15.04007 -18.27929,22.43558 0.0183,18.81281 8.39382,37.83256 6.2154,55.98439 -6.68475,5.30401 -15.85282,12.74109 -24.80863,9.85478 -7.4446,-8.83953 -5.16422,-20.90327 -8.96671,-31.76691 -2.90986,-14.9867 -2.82183,-30.81016 -7.62073,-45.08612 -10.5806,12.16035 -30.00101,25.61152 -21.4629,43.64776 1.49062,10.26444 5.37381,20.62669 7.63662,30.01678 -4.53938,9.95956 -18.73039,12.83942 -26.39091,7.7943 -7.09642,-4.6736 -6.34638,-18.69066 -9.80192,-35.44697 -3.45554,-16.75631 -11.11464,-36.57801 -14.07603,-54.85833 7.70108,-4.3818 35.19883,-8.75472 26.42188,-6.53479 9.39886,4.24892 16.48652,27.84011 9.87987,26.61337 6.69059,-13.057 15.55953,-26.20497 30.87962,-29.59688 8.72512,-10.04384 24.99823,-7.85641 26.41522,6.57905 6.35636,12.4614 11.55381,-7.07832 16.81857,-14.26367 5.26475,-7.18534 42.81842,-6.65752 32.37495,-6.59098 12.87091,8.41542 4.74693,28.04809 9.92697,40.82163 1.42498,17.95893 5.40201,36.06375 8.94291,52.28806 z m -25.73759,-81.56191 c -0.70138,0.48237 0.66015,0.90721 0,0 z m -19.09476,54.82925 c -1.26412,-0.43898 1.26413,-0.43898 0,0 z m -1.45484,-10.91129 c -1.26413,-0.43899 1.26413,-0.43899 0,0 z m -5.27379,32.09738 c -0.65199,-0.6991 0.67357,-0.46613 0,0 z m -96.74679,-69.37764 c -0.66433,-0.70982 0.66435,-0.70982 0,0 z M 352.78047,615.71423 c -6.78873,9.4017 -17.55538,9.03854 -27.43984,10.6373 -9.62862,0.93263 -10.76977,-15.42246 -13.70129,-25.56606 -6.60697,-46.79141 -10.88333,-94.91537 -18.38174,-141.72325 -4.3035,-20.54857 -6.51417,-42.8984 -10.45858,-62.94151 7.76309,-9.90675 13.97301,0.45888 22.95702,-5.88192 12.00374,-5.96917 18.48405,6.98692 16.39868,22.88375 1.927,23.43614 4.96373,46.50052 7.12295,69.79158 7.33538,39.06119 9.54649,79.58471 19.67192,117.65485 1.6978,6.27423 2.7825,11.14139 3.83088,15.14526 z m 99.54366,-89.67248 c -9.32803,15.37394 -33.49806,10.75336 -48.62406,18.73839 -6.81737,2.34259 -19.65142,4.1688 -10.43985,13.28247 10.40615,14.86943 30.75686,12.50425 44.73651,4.24679 10.61489,-1.11656 7.97161,26.46114 9.63831,19.86699 -21.39066,14.59556 -56.0628,16.21959 -73.44122,-6.11242 -15.26718,-16.46756 -20.52257,-45.09509 -4.76436,-62.88758 17.64715,-25.77555 61.88798,-27.67815 79.31175,-0.83364 1.85627,4.35874 3.61275,8.87989 3.58292,13.699 z m -30.78416,1.58786 c -3.88943,-17.3301 -31.21211,-16.02176 -33.42908,1.59516 -2.96301,9.38656 0.36138,12.5779 8.79875,7.36741 6.74691,-4.55989 19.78121,-3.93301 24.63033,-8.96257 z m -12.45816,-6.61303 c -0.64782,-0.44851 0.66488,-0.21994 0,0 z m 12.54804,21.5498 c -0.66488,-0.21994 0.64782,-0.44851 0,0 z m -22.56517,11.91149 c -0.51029,-1.14738 1.12317,-0.0378 0,0 z" 
    />
   <path
       id="coming_soon"
       style="fill:#00ffff;stroke:#000000;stroke-width:1.9"
       d="m 1636.2183,725.76898 c -11.1425,35.96934 -26.3579,71.20668 -48.1307,101.29133 -3.946,5.18014 -13.7446,14.08131 -18.4713,6.40063 9.774,-16.43851 21.4725,-32.41945 29.6312,-50.00447 9.8948,-21.13614 18.8544,-43.11705 24.7144,-65.48513 5.0165,-4.41999 11.98,1.53887 12.2564,7.79764 z m -61.4371,61.13212 c -1.0581,6.67349 -8.6592,10.23451 -11.8711,16.35754 -10.1154,10.80395 -22.8329,18.72671 -35.7445,24.97841 -7.1027,1.72027 -12.9864,-8.42199 -6.6304,-12.60848 2.6585,-3.24405 5.6962,-8.54284 0.2036,-2.5881 -9.0158,7.09045 -14.8774,19.28331 -25.7735,23.1173 -8.6734,0.23893 -9.7603,-11.23919 -3.5827,-16.00667 3.8501,-5.08454 10.8657,-11.01745 12.2982,-16.08504 -12.1435,7.35716 -22.984,15.49763 -35.5785,21.99308 -8.2673,7.54654 -18.2102,20.87466 -30.9145,15.85095 -8.8426,-4.61423 -3.0931,-16.38767 -1.5221,-22.76651 -11.0667,3.94773 -15.5984,16.84812 -24.904,23.45936 -6.1023,7.7034 -20.9951,9.16162 -24.0567,-2.16787 -2.1521,-4.28914 3.8632,-17.37455 -4.5745,-10.34346 -9.7549,5.987 -21.68,10.955 -28.9607,19.92265 -1.225,6.39886 -6.2757,9.42644 -12.9938,7.51132 -5.7105,-1.36933 -10.6098,-6.49229 -13.1605,-10.43865 -6.5262,5.68647 -9.1122,15.76846 -16.2546,20.06848 -7.0907,2.83207 -13.3143,-6.75776 -6.3747,-11.38372 14.7473,-20.85956 31.6606,-40.92531 49.2328,-58.90331 7.3054,-2.38301 14.2232,7.59924 7.7056,12.8186 -2.3488,6.27082 -4.1308,13.5687 -4.0049,20.14764 14.1976,-10.42312 32.649,-14.46435 43.3632,-28.9854 6.5176,-5.73334 17.5949,-13.33831 25.1449,-6.44669 6.1991,-4.45045 15.6723,-0.5671 16.1762,7.26023 10.6386,-4.93772 18.7947,-17.57105 31.9795,-15.00331 6.1804,1.50428 11.4398,7.42963 13.7715,12.36215 9.6225,-5.23698 18.3722,-11.89624 28.752,-15.0953 7.1083,-2.33235 6.4136,8.48865 9.9831,7.71974 4.5089,-4.53207 13.1642,-10.29661 17.5429,-2.66248 2.4712,4.55441 -1.756,10.51262 -1.3678,14.47653 9.6802,-5.42234 13.9816,-17.87247 22.8716,-23.24157 4.2199,-1.28584 8.8203,2.44965 9.2444,6.68258 z m -120.2999,35.04206 c -1.9069,-7.12889 -4.8042,-1.5891 -6.083,2.5301 -4.8494,9.26801 4.5582,-1.20559 6.083,-2.5301 z m -41.4221,-0.73602 c -2.1909,-1.5629 -1.9993,-12.24188 -6.0582,-6.48798 -4.2095,5.24683 -7.6652,13.50442 -6.9755,19.50565 4.8651,-3.61682 9.4397,-8.31252 13.0337,-13.01767 z m -69.3637,6.65069 c -1.8687,-1.98752 -6.9534,7.66033 -9.7646,10.22462 -6.61,5.77846 0.7688,4.02052 5.3198,3.19796 5.2306,-1.71177 3.1736,-9.1642 4.4448,-13.42258 z m 222.2718,31.86356 c -0.6903,10.82479 -20.4748,5.01293 -13.419,-4.83411 5.1893,-6.32138 12.825,-2.1898 13.419,4.83411 z m -300.8906,-8.21111 c -2.121,6.34787 -10.1131,9.61117 -14.6478,15.18728 -7.4788,8.07357 -19.6813,11.51346 -25.3532,20.70843 -4.1586,15.98835 -13.7214,29.7109 -19.414,45.14403 -3.5112,7.45183 -7.9005,18.22979 -18.1337,14.86408 -12.4356,-5.64401 -10.1102,-23.94797 -5.4919,-34.47299 8.2438,-13.29687 20.0387,-23.82936 31.126,-34.38179 0.069,-3.38407 5.7502,-12.75567 2.403,-12.57615 -5.8159,4.08052 -14.0835,1.85418 -16.6212,-4.66415 -5.2778,3.02987 -5.6727,8.27024 -9.28,10.60626 -5.7887,4.0267 -15.0997,-2.17353 -13.2534,-8.62609 1.1586,-8.92551 -4.0894,-6.51623 -7.7128,-0.90964 -6.12,4.8347 -9.26,12.88372 -15.3279,17.07515 -7.4031,2.76223 -13.5378,-7.60902 -8.1574,-13.68163 6.418,-11.49011 -2.8038,-0.62657 -6.8994,3.72718 -6.6218,8.06929 -21.0019,16.39752 -28.468,5.03244 -6.1226,4.35748 -9.6516,13.24285 -17.7204,12.60577 -5.9934,-1.23628 -8.4338,-7.2981 -7.0338,-13.03492 -1.042,-6.34761 -8.1192,6.21382 -10.1595,8.73474 -1.1969,6.11275 -7.5375,10.27207 -13.1053,5.90949 -6.1963,-4.02909 -0.057,-11.92917 0.3953,-15.2305 -9.0301,7.00154 -15.1497,17.39235 -20.383,26.75797 -7.2405,4.21219 -16.1243,-4.83895 -9.781,-11.27635 2.4454,-5.56104 5.7637,-12.40906 7.044,-17.392 -8.4494,6.25339 -16.0694,13.33446 -25.44,18.70225 -6.9855,9.71688 -12.5006,21.75363 -23.15754,28.13085 -11.44044,4.35657 -19.79183,-9.59064 -16.7648,-19.89058 -8.8638,7.22457 -17.08474,15.44797 -25.88074,22.54229 -9.89217,5.87945 -15.52801,-6.05851 -17.70204,-13.30737 -9.76638,12.54582 -19.73752,28.99196 -35.52677,32.91205 -6.04502,1.07484 -14.38624,-6.41388 -10.49653,-11.82056 6.1039,-2.53675 13.96076,-0.30665 17.97816,-7.39181 16.06124,-16.5499 27.07163,-38.48654 46.78568,-50.94269 7.95711,-2.04325 16.17996,4.44457 11.97544,12.12225 -6.81226,1.71201 -15.61176,4.75399 -15.05614,13.77279 -2.98289,7.79685 -0.66062,12.03904 5.2675,4.70788 12.06018,-10.25189 22.77179,-23.13384 35.86654,-31.72006 3.8495,-7.71963 14.91114,-0.11394 19.62474,-8.31613 5.8964,-3.5679 16.0331,0.98825 13.3981,8.89934 9.9916,-5.80486 18.6415,-18.11828 31.1618,-17.82651 5.6921,0.59524 5.3952,6.62615 5.8446,9.82032 5.7934,-2.58586 9.9403,-9.96484 16.3319,-10.12157 3.7815,-0.0185 6.3451,3.21104 8.424,4.99355 8.241,-3.29872 10.5186,-17.13274 20.8518,-12.41302 7.5957,3.91468 0.9916,12.51127 0.099,17.69361 8.215,-8.81738 14.5192,-20.59035 23.5572,-27.78122 7.5708,-2.44669 14.1537,7.45522 6.4681,12.75831 -3.6675,5.10807 -8.1861,12.7513 -9.398,18.24045 11.9744,-10.34985 22.6032,-23.43555 34.6974,-33.03612 8.648,-2.31287 10.8979,6.97546 9.7671,13.33198 6.7562,-3.60798 12.4708,-9.85827 17.6015,-14.3581 7.4027,-2.31656 14.6152,6.60457 8.307,12.94528 -1.5824,3.83654 -5.2613,8.89165 0.6159,3.42341 10.2139,-8.00219 17.3144,-18.96493 26.5457,-27.73332 8.2076,-4.79374 16.1136,0.57532 22.8839,3.45416 7.4523,8.0268 -2.7119,17.81893 -5.4491,25.88392 -1.5143,4.40401 -5.568,11.00449 -5.1696,14.68011 7.9047,-5.27327 14.0621,-13.70716 21.3942,-19.01622 5.4434,-2.15154 8.7553,2.64963 10.5696,6.55387 z m -37.1935,-16.57669 c -3.7725,-1.29423 -8.6204,8.10505 -9.4258,10.95339 3.2247,-3.56948 6.6379,-6.97384 9.4258,-10.95339 z m -26.544,73.63426 c -4.7148,4.3246 -11.5485,13.26089 -9.47,20.55871 4.023,-6.35952 6.1623,-13.91188 9.47,-20.55871 z M 997.45576,891.37971 c -3.71292,-2.58023 -5.91866,-8.64833 -7.6535,-0.68244 -0.33445,4.185 -5.07213,10.26477 -2.5589,14.5028 3.80104,-4.1871 7.68131,-8.78346 10.2124,-13.82036 z m 151.86244,-90.83299 c -1.5609,7.99406 -10.1886,19.02125 -17.9901,12.88664 -5.1013,-2.57013 -4.642,-11.41723 2.0152,-11.59961 2.6223,-4.75875 7.224,-10.48738 12.8606,-5.40871 1.6852,1.03533 2.5897,2.31936 3.1143,4.12168 z m -287.39098,137.94318 0.095,0.5027 -0.2899,0.5027 -0.2898,0.5026 -0.01,0.4247 -0.01,0.4248 -0.6206,0.7817 -0.6206,0.7816 -0.6022,0.382 -0.6022,0.382 -0.1714,0.4509 -0.1715,0.451 -2.9135,0.1456 -2.9135,0.1457 -1.247,-0.4211 -1.247,-0.4211 -0.6782,-0.6983 -0.6782,-0.6984 v -0.1319 -0.132 l -0.8083,-1.0152 -0.8083,-1.0152 -0.1184,-0.4719 -0.1185,-0.4719 0.09,-1.4571 0.09,-1.4571 0.2476,-0.5027 0.2478,-0.5026 0.3648,-0.6578 0.3649,-0.6578 0.6768,-0.4925 0.6767,-0.4925 0.7067,-0.4812 0.7066,-0.4811 0.284,-0.3422 0.284,-0.3422 0.5995,-0.31 0.5995,-0.31 0.9373,0.1243 0.9372,0.1243 0.649,-0.2262 0.6489,-0.2262 0.7598,0.823 0.7597,0.823 0.6884,0.3025 0.6883,0.3026 0.4366,0.3747 0.4366,0.3746 0.4171,0.6843 0.4172,0.6842 v 0.441 0.441 l 0.4139,0.2899 0.4138,0.2899 0.09,0.9781 0.09,0.9782 z"
    />
  </g>
</svg>
